<?xml version="1.0" standalone="no"?>
<!DOCTYPE svg PUBLIC "-//W3C//DTD SVG 1.1//EN" "http://www.w3.org/Graphics/SVG/1.1/DTD/svg11.dtd" >
<svg xmlns="http://www.w3.org/2000/svg" width="100%" height="100%">
<metadata>
Created by FontXChange 20110222 at Thu Sep  5 14:38:48 2013
 By gummy
(c) 2011 Klim Type Foundry. All rights reserved.
</metadata>
<defs>
<font id="Calibre-SemiboldItalic" horiz-adv-x="520" >
  <font-face 
    font-family="Calibre"
    font-weight="600"
    font-style="italic"
    font-stretch="normal"
    units-per-em="1000"
    panose-1="2 11 7 3 3 2 2 13 2 3"
    ascent="650"
    descent="-350"
    x-height="447"
    cap-height="614"
    bbox="-189 -225 944 906"
    underline-thickness="30"
    underline-position="-40"
    slope="-10"
    stemh="114"
    stemv="129"
    unicode-range="U+0020-FB02"
  />
<missing-glyph horiz-adv-x="608" 
 />
    <glyph glyph-name="f_f" unicode="ff" horiz-adv-x="617" 
d="M684 647l-19 -104c-10 7 -25 11 -40 11c-40 0 -66 -21 -74 -62l-8 -45h93l-18 -100h-93l-60 -347h-123l61 347h-169l-60 -347h-123l61 347h-73l18 100h73l8 47c18 104 90 159 186 159c27 0 50 -4 67 -12l-18 -103c-11 7 -25 11 -40 11c-40 0 -66 -20 -74 -62l-7 -40h169
l9 53c18 104 91 159 187 159c26 0 49 -4 67 -12z" />
    <glyph glyph-name=".notdef" horiz-adv-x="608" 
 />
    <glyph glyph-name="space" unicode=" " horiz-adv-x="212" 
 />
    <glyph glyph-name="exclam" unicode="!" horiz-adv-x="217" 
d="M63 198l46 416h150l-105 -416h-91zM12 70c0 44 35 78 79 78s79 -34 79 -78c0 -43 -35 -77 -79 -77s-79 34 -79 77z" />
    <glyph glyph-name="quotedbl" unicode="&#x22;" horiz-adv-x="327" 
d="M60 366l44 248h101l-45 -248h-100zM210 366l44 248h101l-45 -248h-100z" />
    <glyph glyph-name="numbersign" unicode="#" horiz-adv-x="630" 
d="M572 245l-18 -86h-113l-48 -159h-98l48 159h-119l-48 -159h-98l48 159h-86l19 86h93l37 124h-104l18 86h112l49 159h99l-49 -159h119l49 159h97l-49 -159h87l-19 -86h-94l-37 -124h105zM288 369l-38 -124h119l38 124h-119z" />
    <glyph glyph-name="dollar" unicode="$" horiz-adv-x="498" 
d="M12 188h123c8 -57 52 -82 106 -82c61 0 104 27 104 80c0 28 -17 46 -63 59l-95 28c-69 19 -122 58 -122 141c0 110 88 189 207 195l16 91h106l-18 -102c80 -25 121 -86 127 -162h-118c-6 41 -40 73 -99 73c-56 0 -98 -28 -98 -76c0 -27 16 -45 56 -57l100 -29
c80 -24 125 -69 125 -144c0 -115 -89 -186 -197 -198l-17 -94h-107l18 100c-90 20 -148 80 -154 177z" />
    <glyph glyph-name="percent" unicode="%" horiz-adv-x="685" 
d="M213 624c76 0 135 -60 135 -135c0 -77 -63 -149 -148 -149c-76 0 -135 60 -135 135c0 77 63 149 148 149zM204 423c32 0 61 26 61 63c0 31 -25 55 -56 55s-61 -26 -61 -63c0 -31 25 -55 56 -55zM66 0l480 614h89l-480 -614h-89zM489 -10c-76 0 -135 60 -135 135
c0 77 62 149 147 149c77 0 135 -60 135 -135c0 -77 -62 -149 -147 -149zM498 191c-32 0 -61 -26 -61 -63c0 -31 25 -55 55 -55c32 0 62 26 62 63c0 31 -26 55 -56 55z" />
    <glyph glyph-name="ampersand" unicode="&#x26;" horiz-adv-x="582" 
d="M327 525c-46 0 -76 -33 -76 -79c0 -29 13 -52 32 -77l115 -158c16 29 27 62 35 98h111c-12 -68 -42 -131 -84 -184l92 -125h-141l-34 45c-51 -35 -108 -55 -167 -55c-122 0 -192 66 -192 171c0 83 55 149 137 184c-16 28 -25 57 -25 92c0 112 90 187 201 187
c113 0 174 -65 176 -163h-121c-1 37 -19 64 -59 64zM217 89c37 0 72 11 103 32l-109 145c-45 -13 -76 -52 -76 -100c0 -46 34 -77 82 -77z" />
    <glyph glyph-name="quoteright" unicode="&#x2019;" horiz-adv-x="205" 
d="M45 366l88 112c-29 8 -50 33 -50 69c0 45 34 77 78 77c43 0 79 -30 79 -83c0 -32 -18 -62 -39 -88l-71 -87h-85z" />
    <glyph glyph-name="parenleft" unicode="(" horiz-adv-x="325" 
d="M32 223c0 206 130 378 346 427l-22 -125c-110 -30 -205 -146 -205 -302c0 -97 48 -161 120 -182l-22 -125c-133 40 -217 145 -217 307z" />
    <glyph glyph-name="parenright" unicode=")" horiz-adv-x="325" 
d="M316 343c0 -206 -130 -378 -346 -427l22 125c110 30 205 146 205 302c0 97 -48 161 -120 182l22 125c133 -40 217 -145 217 -307z" />
    <glyph glyph-name="asterisk" unicode="*" horiz-adv-x="346" 
d="M222 344l-63 10l16 94l-89 -32l-21 60l88 32l-73 61l41 49l73 -61l15 93l64 -10l-17 -94l89 32l22 -59l-89 -33l73 -61l-41 -49l-72 61z" />
    <glyph glyph-name="plus" unicode="+" horiz-adv-x="560" 
d="M283 515h96l-30 -168h168l-17 -96h-168l-29 -167h-96l29 167h-168l17 96h168z" />
    <glyph glyph-name="comma" unicode="," horiz-adv-x="210" 
d="M-35 -109l89 114c-29 8 -50 32 -50 69c0 45 34 77 78 77c43 0 79 -30 79 -83c0 -32 -19 -63 -39 -88l-72 -89h-85z" />
    <glyph glyph-name="hyphen" unicode="-" horiz-adv-x="317" 
d="M37 208l19 108h241l-19 -108h-241z" />
    <glyph glyph-name="period" unicode="." horiz-adv-x="210" 
d="M4 73c0 45 34 79 78 79s79 -34 79 -79s-35 -80 -79 -80s-78 35 -78 80z" />
    <glyph glyph-name="slash" unicode="/" horiz-adv-x="373" 
d="M-50 -84l376 734h119l-377 -734h-118z" />
    <glyph glyph-name="zero" unicode="0" horiz-adv-x="545" 
d="M255 104c103 0 155 145 155 272c0 77 -27 134 -90 134c-102 0 -155 -145 -155 -272c0 -77 28 -134 90 -134zM253 -10c-135 0 -210 102 -210 248c0 209 120 386 280 386c135 0 209 -102 209 -248c0 -208 -120 -386 -279 -386z" />
    <glyph glyph-name="one" unicode="1" horiz-adv-x="345" 
d="M349 614l-108 -614h-125l82 466l-156 -72l22 128l204 92h81z" />
    <glyph glyph-name="two" unicode="2" horiz-adv-x="476" 
d="M-2 85l246 217c51 46 110 97 110 149c0 35 -23 59 -67 59c-52 0 -83 -38 -96 -85h-133c31 114 120 199 245 199c115 0 180 -60 180 -154c0 -98 -70 -155 -156 -232l-141 -127h242l-20 -111h-424z" />
    <glyph glyph-name="three" unicode="3" horiz-adv-x="474" 
d="M199 263l18 99h36c55 0 106 27 106 91c0 36 -24 62 -68 62c-51 0 -87 -38 -100 -84h-130c29 111 118 193 241 193c117 0 178 -65 178 -158c0 -75 -48 -135 -104 -157c44 -25 65 -68 65 -118c0 -115 -98 -201 -223 -201c-132 0 -207 73 -207 181c0 7 1 19 1 19h125v-6
c0 -54 26 -85 83 -85c56 0 101 34 101 94c0 42 -31 70 -83 70h-39z" />
    <glyph glyph-name="four" unicode="4" 
d="M435 614l-269 -387h132l22 127h114l-22 -127h93l-18 -105h-94l-21 -122h-114l21 122h-275l17 93l278 399h136z" />
    <glyph glyph-name="five" unicode="5" horiz-adv-x="486" 
d="M225 -10c-128 0 -204 76 -204 182c0 7 1 18 1 18h125v-7c0 -50 30 -84 84 -84c63 0 108 49 108 116c0 51 -30 85 -83 85c-37 0 -66 -18 -88 -41h-104l63 355h361l-20 -111h-256l-22 -125c22 14 54 28 96 28c107 0 172 -70 172 -179c0 -129 -92 -237 -233 -237z" />
    <glyph glyph-name="six" unicode="6" horiz-adv-x="510" 
d="M521 453h-122c-6 33 -30 63 -74 63c-80 0 -137 -82 -154 -172h2c27 34 79 58 129 58c113 0 182 -83 182 -175c0 -125 -98 -237 -233 -237c-149 0 -208 113 -208 244c0 176 100 390 288 390c111 0 179 -67 190 -171zM164 185c0 -49 28 -89 89 -89c60 0 112 52 112 118
c0 49 -28 90 -89 90s-112 -52 -112 -119z" />
    <glyph glyph-name="seven" unicode="7" horiz-adv-x="457" 
d="M485 523l-293 -523h-134l284 502h-276l20 112h415z" />
    <glyph glyph-name="eight" unicode="8" horiz-adv-x="499" 
d="M147 169c0 -48 37 -78 90 -78c57 0 107 34 107 96c0 48 -37 78 -90 78c-58 0 -107 -34 -107 -96zM234 -10c-101 0 -212 53 -212 167c0 90 66 152 135 167c-41 21 -67 61 -67 116c0 115 100 184 212 184c106 0 193 -58 193 -158c0 -79 -51 -137 -113 -158
c47 -20 84 -64 84 -127c0 -128 -116 -191 -232 -191zM376 457c0 41 -34 69 -76 69c-50 0 -93 -33 -93 -89c0 -41 33 -69 75 -69c51 0 94 33 94 89z" />
    <glyph glyph-name="nine" unicode="9" horiz-adv-x="510" 
d="M19 161h122c6 -33 30 -63 74 -63c80 0 137 82 154 172h-2c-27 -34 -79 -58 -129 -58c-113 0 -182 83 -182 175c0 125 98 237 233 237c149 0 208 -113 208 -244c0 -176 -100 -390 -288 -390c-111 0 -179 67 -190 171zM376 429c0 49 -28 89 -89 89
c-60 0 -112 -52 -112 -118c0 -49 28 -90 89 -90s112 52 112 119z" />
    <glyph glyph-name="colon" unicode=":" horiz-adv-x="210" 
d="M4 73c0 45 34 79 78 79s79 -34 79 -79s-35 -80 -79 -80s-78 35 -78 80zM54 358c0 45 34 79 78 79s79 -34 79 -79s-35 -80 -79 -80s-78 35 -78 80z" />
    <glyph glyph-name="semicolon" unicode=";" horiz-adv-x="210" 
d="M-35 -109l89 114c-29 8 -50 32 -50 69c0 45 34 77 78 77c43 0 79 -30 79 -83c0 -32 -19 -63 -39 -88l-72 -89h-85zM54 358c0 45 34 79 78 79s79 -34 79 -79s-35 -80 -79 -80s-78 35 -78 80z" />
    <glyph glyph-name="less" unicode="&#x3c;" horiz-adv-x="441" 
d="M57 236l21 123l355 152l-19 -111l-258 -106l221 -106l-19 -105z" />
    <glyph glyph-name="equal" unicode="=" horiz-adv-x="576" 
d="M64 175l15 87h432l-16 -87h-431zM93 338l15 88h431l-15 -88h-431z" />
    <glyph glyph-name="greater" unicode="&#x3e;" horiz-adv-x="441" 
d="M409 358l-21 -123l-355 -152l19 111l259 106l-222 106l19 105z" />
    <glyph glyph-name="question" unicode="?" horiz-adv-x="456" 
d="M278 510c-54 0 -89 -38 -101 -85h-130c32 114 119 199 246 199c112 0 177 -59 177 -154c0 -87 -64 -142 -126 -196c-42 -37 -51 -57 -54 -76h-123c10 48 28 80 75 124c41 40 96 78 97 131c0 33 -22 57 -61 57zM134 70c0 45 34 78 78 78c45 0 80 -33 80 -78
c0 -43 -35 -77 -80 -77c-44 0 -78 34 -78 77z" />
    <glyph glyph-name="at" unicode="@" horiz-adv-x="768" 
d="M589 386l-55 -236c-6 -27 -1 -47 29 -47c61 0 111 69 111 184c0 133 -104 211 -246 211c-185 0 -319 -135 -319 -332c0 -190 158 -248 285 -248c97 0 172 22 237 51l-13 -77c-51 -25 -133 -46 -224 -46c-190 0 -367 96 -367 320c0 221 166 405 402 405
c195 0 322 -120 322 -283c0 -173 -108 -257 -216 -257c-47 0 -88 19 -109 53c-21 -33 -63 -52 -100 -52c-80 0 -127 59 -127 138c0 117 82 225 195 225c40 0 71 -17 83 -37l8 28h104zM432 166l24 100c-6 21 -27 37 -55 37c-54 0 -94 -57 -94 -119c0 -35 19 -59 56 -59
c31 0 54 19 69 41z" />
    <glyph glyph-name="A" unicode="A" horiz-adv-x="627" 
d="M327 614h127l122 -614h-128l-28 148h-230l-82 -148h-129zM363 460l-113 -204h150z" />
    <glyph glyph-name="B" unicode="B" horiz-adv-x="552" 
d="M439 314c48 -18 77 -62 77 -119c0 -126 -105 -195 -239 -195h-255l108 614h236c114 0 179 -52 179 -144c0 -79 -50 -137 -106 -156zM209 362h104c65 0 107 27 107 85c0 41 -26 59 -81 59h-105zM191 262l-27 -154h122c65 0 106 36 106 90c0 40 -25 64 -79 64h-122z" />
    <glyph glyph-name="C" unicode="C" horiz-adv-x="603" 
d="M43 269c0 185 126 355 316 355c143 0 229 -85 239 -208h-127c-12 55 -49 94 -114 94c-117 0 -184 -110 -184 -240c0 -97 53 -166 139 -166c70 0 111 36 138 95h128c-37 -124 -129 -209 -268 -209c-159 0 -267 113 -267 279z" />
    <glyph glyph-name="D" unicode="D" horiz-adv-x="611" 
d="M169 113h87c135 0 213 99 213 236c0 96 -49 153 -151 153h-80zM22 0l108 614h208c170 0 260 -96 260 -258c0 -200 -138 -356 -356 -356h-220z" />
    <glyph glyph-name="E" unicode="E" horiz-adv-x="516" 
d="M130 614h418l-20 -112h-291l-24 -134h265l-20 -109h-264l-26 -146h291l-19 -113h-418z" />
    <glyph glyph-name="F" unicode="F" horiz-adv-x="501" 
d="M150 0h-128l108 614h409l-19 -112h-282l-28 -156h261l-19 -111h-261z" />
    <glyph glyph-name="G" unicode="G" horiz-adv-x="623" 
d="M315 -10c-164 0 -272 113 -272 279c0 185 127 355 318 355c145 0 236 -84 246 -208h-126c-13 56 -54 94 -122 94c-118 0 -186 -110 -186 -240c0 -97 53 -166 144 -166c74 0 136 50 151 116h-115l18 102h240l-14 -81c-25 -146 -134 -251 -282 -251z" />
    <glyph glyph-name="H" unicode="H" horiz-adv-x="652" 
d="M537 614h128l-108 -614h-128l45 258h-278l-45 -258h-129l108 614h129l-44 -244h279z" />
    <glyph glyph-name="I" unicode="I" horiz-adv-x="245" 
d="M259 614l-108 -614h-129l108 614h129z" />
    <glyph glyph-name="J" unicode="J" horiz-adv-x="514" 
d="M22 203h130s-1 -6 -1 -10c0 -53 25 -87 82 -87c63 0 95 46 109 123l68 385h128l-69 -395c-26 -143 -111 -229 -239 -229c-131 0 -209 75 -209 189c0 8 1 22 1 24z" />
    <glyph glyph-name="K" unicode="K" horiz-adv-x="594" 
d="M259 614l-49 -276l279 276h160l-285 -277l184 -337h-146l-142 255l-78 -74l-31 -181h-129l108 614h129z" />
    <glyph glyph-name="L" unicode="L" horiz-adv-x="507" 
d="M22 0l108 614h129l-89 -501h287l-20 -113h-415z" />
    <glyph glyph-name="M" unicode="M" horiz-adv-x="748" 
d="M382 0h-86l-82 401l-71 -401h-121l108 614h148l89 -439l240 439h154l-108 -614h-122l71 401z" />
    <glyph glyph-name="N" unicode="N" horiz-adv-x="631" 
d="M644 614l-108 -614h-99l-218 421l-73 -421h-124l108 614h118l202 -400l70 400h124z" />
    <glyph glyph-name="O" unicode="O" horiz-adv-x="640" 
d="M311 104c105 0 187 95 187 240c0 94 -53 166 -139 166c-105 0 -186 -95 -186 -240c0 -94 52 -166 138 -166zM309 -10c-163 0 -266 115 -266 279c0 203 142 355 318 355c163 0 266 -115 266 -279c0 -203 -141 -355 -318 -355z" />
    <glyph glyph-name="P" unicode="P" horiz-adv-x="551" 
d="M310 213h-123l-37 -213h-128l108 614h246c117 0 187 -60 187 -173c0 -146 -112 -228 -253 -228zM238 505l-31 -183h114c72 0 116 42 116 108c0 45 -26 75 -85 75h-114z" />
    <glyph glyph-name="Q" unicode="Q" horiz-adv-x="640" 
d="M309 -10c-163 0 -266 115 -266 279c0 203 142 355 318 355c163 0 266 -115 266 -279c0 -116 -47 -215 -119 -279l37 -59l-84 -55l-38 61c-35 -15 -74 -23 -114 -23zM311 101c19 0 36 3 53 8l-40 64l86 54l36 -60c33 43 52 104 52 177c0 94 -53 166 -139 166
c-105 0 -186 -95 -186 -240c0 -94 52 -169 138 -169z" />
    <glyph glyph-name="R" unicode="R" horiz-adv-x="563" 
d="M263 229h-73l-40 -229h-128l108 614h242c123 0 191 -61 191 -170c0 -111 -71 -183 -172 -207l123 -237h-137zM238 505l-30 -171h117c70 0 112 36 112 102c0 41 -26 69 -84 69h-115z" />
    <glyph glyph-name="S" unicode="S" horiz-adv-x="531" 
d="M533 441h-126c-6 43 -42 78 -104 78c-59 0 -101 -30 -101 -80c0 -29 14 -48 56 -60l105 -31c82 -25 129 -72 129 -149c0 -132 -111 -209 -240 -209c-136 0 -229 67 -239 190h128c10 -57 57 -84 112 -84c65 0 110 29 110 85c0 29 -18 49 -66 63l-99 28
c-72 21 -125 61 -125 147c0 120 99 205 231 205c145 0 222 -76 229 -183z" />
    <glyph glyph-name="T" unicode="T" horiz-adv-x="575" 
d="M75 502l20 112h524l-20 -112h-198l-88 -502h-129l89 502h-198z" />
    <glyph glyph-name="U" unicode="U" horiz-adv-x="610" 
d="M284 -10c-139 0 -232 71 -232 203c0 18 2 38 8 67l62 354h128l-63 -354c-2 -17 -4 -32 -4 -46c0 -70 35 -109 106 -109c85 0 134 50 153 155l62 354h128l-65 -367c-29 -167 -130 -257 -283 -257z" />
    <glyph glyph-name="V" unicode="V" horiz-adv-x="614" 
d="M322 0h-125l-110 614h129l73 -444l247 444h136z" />
    <glyph glyph-name="W" unicode="W" horiz-adv-x="798" 
d="M420 614h101l25 -413l181 413h129l-281 -614h-118l-28 405l-188 -405h-117l-37 614h125l19 -413z" />
    <glyph glyph-name="X" unicode="X" horiz-adv-x="584" 
d="M645 614l-267 -305l153 -309h-134l-105 216l-188 -216h-143l279 318l-146 296h134l98 -202l176 202h143z" />
    <glyph glyph-name="Y" unicode="Y" horiz-adv-x="593" 
d="M319 354l194 260h141l-290 -381l-41 -233h-127l40 233l-153 381h134z" />
    <glyph glyph-name="Z" unicode="Z" horiz-adv-x="554" 
d="M499 113l-20 -113h-474l16 93l378 409h-299l20 112h465l-17 -92l-375 -409h306z" />
    <glyph glyph-name="bracketleft" unicode="[" horiz-adv-x="322" 
d="M232 543l-91 -520h127l-19 -107h-244l129 734h244l-19 -107h-127z" />
    <glyph glyph-name="backslash" unicode="\" horiz-adv-x="373" 
d="M206 650l119 -734h-109l-119 734h109z" />
    <glyph glyph-name="bracketright" unicode="]" horiz-adv-x="322" 
d="M115 23l91 520h-127l19 107h244l-129 -734h-244l19 107h127z" />
    <glyph glyph-name="asciicircum" unicode="^" horiz-adv-x="409" 
d="M215 614h113l98 -220h-110l-56 126l-101 -126h-121z" />
    <glyph glyph-name="underscore" unicode="_" horiz-adv-x="381" 
d="M-38 -143l17 101h341l-18 -101h-340z" />
    <glyph glyph-name="quoteleft" unicode="&#x2018;" horiz-adv-x="205" 
d="M256 614l-88 -112c29 -8 50 -33 50 -69c0 -45 -34 -77 -78 -77c-43 0 -79 30 -79 83c0 32 18 62 39 88l71 87h85z" />
    <glyph glyph-name="a" unicode="a" horiz-adv-x="473" 
d="M436 285l-50 -285h-120l4 24c-18 -15 -57 -32 -105 -32c-83 0 -151 47 -151 129c0 99 93 159 195 159c44 0 84 -12 102 -26l6 32c1 5 2 12 2 18c0 30 -18 52 -59 52c-37 0 -61 -16 -76 -42h-118c25 82 105 143 209 143c102 0 164 -56 164 -140c0 -10 -1 -21 -3 -32z
M287 121l6 33c-7 24 -37 39 -73 39c-40 0 -89 -19 -89 -64c0 -32 35 -46 71 -46c35 0 70 14 85 38z" />
    <glyph glyph-name="b" unicode="b" horiz-adv-x="522" 
d="M147 38l-7 -38h-124l114 650h124l-43 -245c25 28 70 52 118 52c111 0 168 -85 168 -194c0 -152 -100 -273 -239 -273c-54 0 -95 23 -111 48zM191 291l-24 -141c9 -31 38 -52 79 -52c77 0 125 67 125 158c0 53 -29 93 -82 93c-45 0 -77 -27 -98 -58z" />
    <glyph glyph-name="c" unicode="c" horiz-adv-x="459" 
d="M307 151h121c-24 -100 -99 -161 -210 -161c-118 0 -192 82 -192 200c0 139 95 267 241 267c114 0 176 -65 180 -161h-122c-3 33 -24 55 -62 55c-77 0 -113 -83 -113 -159c0 -59 28 -96 77 -96c40 0 67 21 80 55z" />
    <glyph glyph-name="d" unicode="d" horiz-adv-x="522" 
d="M375 409l42 241h124l-114 -650h-124l8 42c-25 -28 -69 -52 -118 -52c-111 0 -167 85 -167 194c0 144 99 273 238 273c54 0 95 -23 111 -48zM331 156l25 141c-10 30 -39 52 -80 52c-76 0 -125 -77 -125 -158c0 -53 29 -93 82 -93c45 0 77 27 98 58z" />
    <glyph glyph-name="e" unicode="e" horiz-adv-x="474" 
d="M317 146h120c-27 -95 -103 -156 -214 -156c-123 0 -197 80 -197 200c0 135 93 267 245 267c115 0 181 -70 181 -183c0 -21 -3 -50 -9 -77h-298v-8c0 -62 29 -99 86 -99c39 0 70 19 86 56zM266 356c-54 0 -89 -37 -107 -84h175c1 5 1 8 1 12c0 41 -26 72 -69 72z" />
    <glyph glyph-name="f" unicode="f" horiz-adv-x="326" 
d="M392 647l-18 -104c-11 7 -25 11 -40 11c-40 0 -67 -21 -74 -62l-8 -45h93l-18 -100h-93l-60 -347h-123l61 347h-73l18 100h73l9 53c18 104 90 159 186 159c27 0 50 -4 67 -12z" />
    <glyph glyph-name="g" unicode="g" 
d="M309 31l5 30c-25 -29 -67 -51 -116 -51c-112 0 -170 84 -170 189c0 139 98 258 236 258c55 0 95 -23 111 -47l7 37h124l-72 -407c-24 -140 -111 -215 -243 -215c-116 0 -193 63 -194 159h120c3 -42 33 -63 78 -63c68 0 101 41 114 110zM333 169l24 135
c-8 28 -40 49 -81 49c-76 0 -123 -71 -123 -149c0 -53 29 -90 82 -90c45 0 78 26 98 55z" />
    <glyph glyph-name="h" unicode="h" horiz-adv-x="505" 
d="M339 457c85 0 133 -55 133 -132c0 -11 -1 -23 -3 -35l-50 -290h-125l46 266c2 9 3 16 3 22c0 35 -19 57 -61 57c-38 0 -75 -25 -92 -62l-50 -283h-124l114 650h124l-43 -245c27 28 71 52 128 52z" />
    <glyph glyph-name="i" unicode="i" horiz-adv-x="232" 
d="M219 447l-79 -447h-124l79 447h124zM253 577c0 -43 -35 -72 -74 -72c-40 0 -73 29 -73 69c0 43 35 73 75 73c39 0 72 -30 72 -70z" />
    <glyph glyph-name="j" unicode="j" horiz-adv-x="232" 
d="M-99 -161l18 100c10 -7 24 -13 42 -13c30 0 44 17 52 57l82 464h124l-83 -465c-17 -101 -73 -157 -166 -157c-29 0 -54 6 -69 14zM253 577c0 -43 -35 -72 -74 -72c-40 0 -73 29 -73 69c0 43 35 73 75 73c39 0 72 -30 72 -70z" />
    <glyph glyph-name="k" unicode="k" horiz-adv-x="496" 
d="M318 0l-108 182l-45 -41l-25 -141h-124l114 650h124l-65 -371l179 168h159l-220 -195l147 -252h-136z" />
    <glyph glyph-name="l" unicode="l" horiz-adv-x="232" 
d="M254 650l-114 -650h-124l114 650h124z" />
    <glyph glyph-name="m" unicode="m" horiz-adv-x="742" 
d="M442 399c32 33 79 58 134 58c89 0 133 -58 133 -131c0 -11 -1 -23 -3 -34l-50 -292h-125l46 261c2 14 3 22 3 29c0 34 -15 55 -51 55c-34 0 -65 -26 -82 -62l-49 -283h-124l45 261c2 14 3 22 3 29c0 34 -15 55 -51 55c-34 0 -65 -26 -81 -62l-50 -283h-124l79 447h124
l-8 -42c27 28 67 52 122 52c49 0 91 -26 109 -58z" />
    <glyph glyph-name="n" unicode="n" horiz-adv-x="505" 
d="M16 0l79 447h124l-8 -42c27 28 71 52 128 52c85 0 133 -55 133 -132c0 -11 -1 -23 -3 -35l-50 -290h-125l46 266c2 9 3 16 3 22c0 35 -19 57 -61 57c-38 0 -75 -25 -92 -62l-50 -283h-124z" />
    <glyph glyph-name="o" unicode="o" horiz-adv-x="490" 
d="M227 95c67 0 114 70 114 163c0 55 -28 94 -78 94c-67 0 -114 -70 -114 -163c0 -55 28 -94 78 -94zM225 -10c-124 0 -199 80 -199 200c0 155 107 267 239 267c124 0 199 -80 199 -200c0 -155 -107 -267 -239 -267z" />
    <glyph glyph-name="p" unicode="p" horiz-adv-x="522" 
d="M147 38l-36 -203h-124l108 612h124l-8 -42c25 28 70 52 118 52c111 0 168 -85 168 -194c0 -152 -100 -273 -239 -273c-54 0 -95 23 -111 48zM191 291l-24 -141c9 -31 38 -52 79 -52c77 0 125 67 125 158c0 53 -29 93 -82 93c-45 0 -77 -27 -98 -58z" />
    <glyph glyph-name="q" unicode="q" horiz-adv-x="519" 
d="M375 409l7 38h124l-108 -612h-124l37 207c-25 -28 -69 -52 -118 -52c-111 0 -167 85 -167 194c0 144 99 273 238 273c54 0 95 -23 111 -48zM331 156l25 141c-10 30 -39 52 -80 52c-76 0 -125 -77 -125 -158c0 -53 29 -93 82 -93c45 0 77 27 98 58z" />
    <glyph glyph-name="r" unicode="r" horiz-adv-x="351" 
d="M366 449l-22 -124c-15 10 -36 15 -59 15c-41 0 -80 -22 -96 -63l-49 -277h-124l79 447h124l-8 -44c23 32 66 54 109 54c22 0 40 -4 46 -8z" />
    <glyph glyph-name="s" unicode="s" horiz-adv-x="437" 
d="M9 135h118c6 -37 38 -51 73 -51c39 0 67 14 67 44c0 20 -9 29 -39 37l-76 21c-62 17 -102 51 -102 117c0 93 85 154 186 154c120 0 175 -60 181 -140h-115c-5 26 -27 46 -66 46c-36 0 -63 -17 -63 -44c0 -16 10 -26 31 -33l82 -24c72 -21 104 -61 104 -117
c0 -102 -89 -155 -192 -155c-117 0 -184 60 -189 145z" />
    <glyph glyph-name="t" unicode="t" horiz-adv-x="343" 
d="M66 135l40 212h-70l18 100h70l22 121h123l-22 -121h96l-17 -100h-97l-36 -191c-1 -7 -2 -12 -2 -19c0 -26 16 -37 43 -37c19 0 42 6 57 15l-19 -110c-19 -9 -50 -14 -82 -14c-79 0 -128 34 -128 108c0 11 2 23 4 36z" />
    <glyph glyph-name="u" unicode="u" horiz-adv-x="501" 
d="M487 447l-78 -447h-124l7 41c-27 -27 -71 -51 -127 -51c-85 0 -132 54 -132 131c0 11 1 23 3 36l51 290h124l-46 -269c-2 -9 -3 -17 -3 -26c0 -33 16 -55 58 -55c39 0 77 28 93 65l50 285h124z" />
    <glyph glyph-name="v" unicode="v" horiz-adv-x="485" 
d="M246 0h-120l-73 447h119l43 -297l168 297h129z" />
    <glyph glyph-name="w" unicode="w" horiz-adv-x="668" 
d="M420 447l14 -285l139 285h122l-230 -447h-113l-16 274l-130 -274h-113l-41 447h117l21 -285l135 285h95z" />
    <glyph glyph-name="x" unicode="x" horiz-adv-x="480" 
d="M507 447l-200 -220l119 -227h-127l-73 142l-127 -142h-136l212 232l-113 215h128l66 -130l114 130h137z" />
    <glyph glyph-name="y" unicode="y" horiz-adv-x="485" 
d="M147 -165h-124l101 172l-71 440h119l45 -297l166 297h129z" />
    <glyph glyph-name="z" unicode="z" horiz-adv-x="450" 
d="M390 100l-17 -100h-374l14 80l261 267h-207l18 100h364l-15 -80l-258 -267h214z" />
    <glyph glyph-name="braceleft" unicode="{" horiz-adv-x="353" 
d="M210 200l-26 -148c-3 -19 5 -29 24 -29h91l-19 -107h-108c-79 0 -119 52 -106 130l27 154c3 19 -5 29 -24 29h-47l19 108h48c19 0 31 10 34 29l26 154c14 77 76 130 152 130h108l-19 -107h-91c-19 0 -31 -10 -34 -29l-26 -148c-8 -43 -33 -68 -62 -84
c24 -16 41 -39 33 -82z" />
    <glyph glyph-name="bar" unicode="|" horiz-adv-x="228" 
d="M7 -84l129 734h111l-129 -734h-111z" />
    <glyph glyph-name="braceright" unicode="}" horiz-adv-x="353" 
d="M169 366l26 148c3 19 -5 29 -24 29h-91l19 107h108c79 0 119 -52 106 -130l-27 -154c-3 -19 5 -29 24 -29h47l-19 -108h-48c-19 0 -31 -10 -34 -29l-26 -154c-14 -77 -76 -130 -152 -130h-108l19 107h91c19 0 31 10 34 29l26 148c8 43 33 68 62 84c-24 16 -41 39 -33 82z
" />
    <glyph glyph-name="asciitilde" unicode="~" horiz-adv-x="428" 
d="M327 347h88c-18 -97 -67 -152 -133 -152c-62 0 -79 59 -116 59c-23 0 -39 -17 -46 -55h-87c16 96 65 152 132 152c61 0 78 -59 116 -59c23 0 39 17 46 55z" />
    <glyph glyph-name="exclamdown" unicode="&#xa1;" horiz-adv-x="224" 
d="M182 320l-46 -416h-150l105 416h91zM233 448c0 -44 -35 -78 -79 -78s-79 34 -79 78c0 43 35 77 79 77s79 -34 79 -77z" />
    <glyph glyph-name="cent" unicode="&#xa2;" horiz-adv-x="459" 
d="M27 200c0 129 82 249 211 265l16 90h107l-19 -100c68 -23 105 -79 106 -155h-120c-2 37 -24 61 -63 61c-77 0 -114 -83 -114 -159c0 -59 28 -96 77 -96c43 0 71 23 83 60h120c-20 -89 -79 -148 -167 -163l-16 -90h-106l16 95c-82 24 -131 96 -131 192z" />
    <glyph glyph-name="sterling" unicode="&#xa3;" horiz-adv-x="497" 
d="M262 424l-13 -73h127l-16 -97h-129l-10 -60c-6 -35 -18 -71 -37 -91h275l-17 -103h-446l18 103h51c17 23 28 47 36 91l11 60h-71l16 97h72l13 71c20 113 90 202 211 202c117 0 171 -72 169 -166h-114c0 40 -21 61 -58 61c-50 0 -78 -40 -88 -95z" />
    <glyph glyph-name="fraction" unicode="&#x2044;" horiz-adv-x="216" 
d="M426 614l-527 -614h-88l526 614h89z" />
    <glyph glyph-name="yen" unicode="&#xa5;" horiz-adv-x="561" 
d="M50 116l14 84h153l10 56h-153l15 84h106l-104 274h131l84 -242l171 242h138l-203 -274h106l-15 -84h-153l-10 -56h153l-14 -84h-153l-20 -116h-124l20 116h-152z" />
    <glyph glyph-name="florin" unicode="&#x192;" horiz-adv-x="422" 
d="M63 253l18 100h83l35 116c30 100 99 155 191 155c33 0 59 -5 75 -12l-19 -105c-14 7 -29 12 -49 12c-37 0 -61 -18 -75 -62l-31 -104h83l-18 -100h-95l-81 -272c-30 -100 -93 -155 -184 -155c-34 0 -59 5 -75 12l17 102c15 -8 30 -12 50 -12c36 0 54 18 67 62l79 263h-71
z" />
    <glyph glyph-name="section" unicode="&#xa7;" horiz-adv-x="473" 
d="M297 276l-107 80c-24 -6 -48 -26 -48 -53c0 -23 19 -38 42 -55l107 -80c24 6 48 26 48 53c0 23 -19 38 -42 55zM355 102c7 -11 10 -26 10 -43c0 -99 -90 -159 -186 -159c-117 0 -171 61 -171 147h113c0 -31 17 -55 61 -55c36 0 67 18 67 54c0 19 -12 31 -36 48l-99 69
c-46 33 -82 69 -82 123c0 62 36 109 94 136c-7 11 -10 26 -10 43c0 99 90 159 187 159c116 0 171 -61 171 -147h-113c0 31 -18 55 -62 55c-36 0 -67 -18 -67 -54c0 -19 13 -31 37 -48l98 -69c47 -33 82 -69 82 -123c0 -62 -36 -109 -94 -136z" />
    <glyph glyph-name="quotesingle" unicode="'" horiz-adv-x="182" 
d="M60 366l44 248h106l-44 -248h-106z" />
    <glyph glyph-name="quotedblleft" unicode="&#x201c;" horiz-adv-x="400" 
d="M256 614l-88 -112c29 -8 50 -33 50 -69c0 -45 -34 -77 -78 -77c-43 0 -79 30 -79 83c0 32 18 62 39 88l71 87h85zM451 614l-88 -112c29 -8 50 -33 50 -69c0 -45 -34 -77 -78 -77c-43 0 -79 30 -79 83c0 32 18 62 39 88l71 87h85z" />
    <glyph glyph-name="guillemotleft" unicode="&#xab;" horiz-adv-x="420" 
d="M193 61h-106l-63 161l120 161h110l-123 -167zM365 61h-106l-63 158l120 164h110l-123 -167z" />
    <glyph glyph-name="guilsinglleft" unicode="&#x2039;" horiz-adv-x="254" 
d="M198 61h-111l-63 161l118 161h118l-123 -167z" />
    <glyph glyph-name="guilsinglright" unicode="&#x203a;" horiz-adv-x="254" 
d="M65 383h111l63 -161l-118 -161h-118l123 167z" />
    <glyph glyph-name="fi" unicode="&#xfb01;" horiz-adv-x="558" 
d="M545 447l-79 -447h-124l79 447h124zM579 577c0 -43 -35 -72 -74 -72c-40 0 -73 29 -73 69c0 43 35 73 75 73c39 0 72 -30 72 -70zM392 647l-18 -104c-11 7 -25 11 -40 11c-40 0 -67 -21 -74 -62l-8 -45h93l-18 -100h-93l-60 -347h-123l61 347h-73l18 100h73l9 53
c18 104 90 159 186 159c27 0 50 -4 67 -12z" />
    <glyph glyph-name="fl" unicode="&#xfb02;" horiz-adv-x="558" 
d="M580 650l-114 -650h-124l114 650h124zM392 647l-18 -104c-11 7 -25 11 -40 11c-40 0 -67 -21 -74 -62l-8 -45h93l-18 -100h-93l-60 -347h-123l61 347h-73l18 100h73l9 53c18 104 90 159 186 159c27 0 50 -4 67 -12z" />
    <glyph glyph-name="endash" unicode="&#x2013;" horiz-adv-x="471" 
d="M37 217l16 90h395l-16 -90h-395z" />
    <glyph glyph-name="dagger" unicode="&#x2020;" horiz-adv-x="337" 
d="M71 475l15 83h98l17 92h85l-17 -92h100l-15 -83h-99l-35 -199h-85l35 199h-99z" />
    <glyph glyph-name="daggerdbl" unicode="&#x2021;" horiz-adv-x="347" 
d="M77 499l14 76h100l13 75h83l-13 -75h102l-14 -76h-102l-13 -73h102l-13 -75h-102l-13 -75h-83l13 75h-100l13 75h100l13 73h-100z" />
    <glyph glyph-name="periodcentered" unicode="&#xb7;" horiz-adv-x="214" 
d="M33 263c0 45 34 79 78 79s79 -34 79 -79s-35 -80 -79 -80s-78 35 -78 80z" />
    <glyph glyph-name="paragraph" unicode="&#xb6;" horiz-adv-x="538" 
d="M336 -90l124 704h91l-124 -704h-91zM181 -90l62 349c-98 0 -193 49 -193 153c0 146 144 202 265 202h81l-124 -704h-91z" />
    <glyph glyph-name="bullet" unicode="&#x2022;" horiz-adv-x="364" 
d="M342 262c0 -90 -69 -152 -154 -152s-153 62 -153 152c0 91 68 153 153 153s154 -62 154 -153z" />
    <glyph glyph-name="quotesinglbase" unicode="&#x201a;" horiz-adv-x="205" 
d="M-33 -110l88 112c-29 8 -50 33 -50 69c0 45 34 77 78 77c43 0 79 -30 79 -83c0 -32 -18 -62 -39 -88l-71 -87h-85z" />
    <glyph glyph-name="quotedblbase" unicode="&#x201e;" horiz-adv-x="400" 
d="M-33 -110l88 112c-29 8 -50 33 -50 69c0 45 34 77 78 77c43 0 79 -30 79 -83c0 -32 -18 -62 -39 -88l-71 -87h-85zM161 -110l88 112c-29 8 -50 33 -50 69c0 45 34 77 78 77c43 0 79 -30 79 -83c0 -32 -18 -62 -39 -88l-71 -87h-85z" />
    <glyph glyph-name="quotedblright" unicode="&#x201d;" horiz-adv-x="400" 
d="M45 366l88 112c-29 8 -50 33 -50 69c0 45 34 77 78 77c43 0 79 -30 79 -83c0 -32 -18 -62 -39 -88l-71 -87h-85zM239 366l88 112c-29 8 -50 33 -50 69c0 45 34 77 78 77c43 0 79 -30 79 -83c0 -32 -18 -62 -39 -88l-71 -87h-85z" />
    <glyph glyph-name="guillemotright" unicode="&#xbb;" horiz-adv-x="420" 
d="M236 383h106l63 -161l-120 -161h-110l123 167zM64 383h106l63 -158l-120 -164h-110l123 167z" />
    <glyph glyph-name="ellipsis" unicode="&#x2026;" horiz-adv-x="665" 
d="M4 73c0 45 35 79 79 79s78 -34 78 -79s-34 -80 -78 -80s-79 35 -79 80zM234 73c0 45 35 79 79 79s78 -34 78 -79s-34 -80 -78 -80s-79 35 -79 80zM464 73c0 45 35 79 79 79s78 -34 78 -79s-34 -80 -78 -80s-79 35 -79 80z" />
    <glyph glyph-name="perthousand" unicode="&#x2030;" horiz-adv-x="988" 
d="M213 624c76 0 135 -60 135 -135c0 -77 -63 -149 -148 -149c-76 0 -135 60 -135 135c0 77 63 149 148 149zM204 423c32 0 61 26 61 63c0 31 -25 55 -56 55s-61 -26 -61 -63c0 -31 25 -55 56 -55zM66 0l480 614h89l-480 -614h-89zM489 -10c-76 0 -135 60 -135 135
c0 77 62 149 147 149c77 0 135 -60 135 -135c0 -77 -62 -149 -147 -149zM498 191c-32 0 -61 -26 -61 -63c0 -31 25 -55 55 -55c32 0 62 26 62 63c0 31 -26 55 -56 55zM796 -10c-76 0 -135 60 -135 135c0 77 63 149 148 149c76 0 135 -60 135 -135c0 -77 -63 -149 -148 -149z
M805 191c-31 0 -61 -26 -61 -63c0 -31 25 -55 56 -55c32 0 61 26 61 63c0 31 -25 55 -56 55z" />
    <glyph glyph-name="questiondown" unicode="&#xbf;" horiz-adv-x="456" 
d="M195 8c54 0 89 38 101 85h130c-32 -114 -119 -199 -246 -199c-112 0 -177 59 -177 154c0 87 64 142 126 196c42 37 51 57 54 76h123c-10 -48 -28 -80 -75 -124c-41 -40 -96 -78 -97 -131c0 -33 22 -57 61 -57zM339 448c0 -45 -34 -78 -78 -78c-45 0 -80 33 -80 78
c0 43 35 77 80 77c44 0 78 -34 78 -77z" />
    <glyph glyph-name="grave" unicode="`" horiz-adv-x="500" 
d="M338 508h-105l-64 142h115z" />
    <glyph glyph-name="acute" unicode="&#xb4;" horiz-adv-x="500" 
d="M251 508h-115l105 142h124z" />
    <glyph glyph-name="circumflex" unicode="&#x2c6;" horiz-adv-x="500" 
d="M327 647l70 -145h-95l-37 69l-61 -69h-101l120 145h104z" />
    <glyph glyph-name="tilde" unicode="&#x2dc;" horiz-adv-x="500" 
d="M331 643h73c-13 -79 -49 -139 -109 -139c-44 0 -59 46 -89 46c-19 0 -31 -16 -37 -42h-73c14 79 50 139 109 139c45 0 60 -46 89 -46c19 0 32 16 37 42z" />
    <glyph glyph-name="macron" unicode="&#xaf;" horiz-adv-x="500" 
d="M123 516l16 91h237l-16 -91h-237z" />
    <glyph glyph-name="breve" unicode="&#x2d8;" horiz-adv-x="500" 
d="M233 492c-76 0 -131 50 -114 142h88c-6 -35 4 -58 34 -58c31 0 50 23 56 58h88c-17 -93 -73 -142 -152 -142z" />
    <glyph glyph-name="dotaccent" unicode="&#x2d9;" horiz-adv-x="500" 
d="M324 579c0 -42 -35 -71 -74 -71s-74 29 -74 71c0 41 35 71 74 71s74 -30 74 -71z" />
    <glyph glyph-name="dieresis" unicode="&#xa8;" horiz-adv-x="500" 
d="M101 570c0 38 30 67 67 67c36 0 66 -29 66 -67c0 -36 -30 -66 -66 -66c-37 0 -67 30 -67 66zM265 570c0 38 30 67 66 67s67 -29 67 -67c0 -36 -31 -66 -67 -66s-66 30 -66 66z" />
    <glyph glyph-name="ring" unicode="&#x2da;" horiz-adv-x="500" 
d="M247 545c22 0 41 16 41 41c0 21 -16 38 -37 38c-22 0 -41 -17 -41 -42c0 -21 16 -37 37 -37zM245 487c-55 0 -95 40 -95 93c0 55 45 101 103 101c55 0 95 -40 95 -93c0 -54 -45 -101 -103 -101z" />
    <glyph glyph-name="cedilla" unicode="&#xb8;" horiz-adv-x="500" 
d="M256 -186h-114l95 139h117z" />
    <glyph glyph-name="hungarumlaut" unicode="&#x2dd;" horiz-adv-x="500" 
d="M180 508h-99l92 142h100zM326 508h-100l92 142h101z" />
    <glyph glyph-name="ogonek" unicode="&#x2db;" horiz-adv-x="500" 
d="M250 6h81c-38 -46 -70 -72 -70 -98c0 -10 6 -17 16 -17c12 0 22 5 40 16l-13 -74c-19 -12 -40 -21 -66 -21c-45 0 -69 24 -69 60c0 54 43 92 81 134z" />
    <glyph glyph-name="caron" unicode="&#x2c7;" horiz-adv-x="500" 
d="M173 502l-70 145h95l37 -69l61 69h101l-120 -145h-104z" />
    <glyph glyph-name="emdash" unicode="&#x2014;" horiz-adv-x="842" 
d="M37 217l16 90h766l-16 -90h-766z" />
    <glyph glyph-name="AE" unicode="&#xc6;" horiz-adv-x="879" 
d="M428 614h483l-19 -112h-276l-25 -134h250l-19 -109h-250l-25 -146h276l-20 -113h-402l26 148h-204l-108 -148h-136zM492 517l-191 -261h145z" />
    <glyph glyph-name="ordfeminine" unicode="&#xaa;" horiz-adv-x="333" 
d="M346 506l-33 -186h-95l2 16c-11 -10 -38 -21 -68 -21c-56 0 -100 33 -100 88c0 67 60 105 126 105c31 0 57 -8 69 -17l4 21c1 1 1 5 1 9c0 16 -10 29 -33 29c-21 0 -36 -10 -43 -25h-92c19 59 71 104 148 104c73 0 116 -38 116 -98c0 -9 -1 -16 -2 -25zM232 404l3 19
c-4 12 -20 22 -41 22s-47 -11 -47 -35c0 -18 19 -26 38 -26c20 0 37 7 47 20z" />
    <glyph glyph-name="Lslash" unicode="&#x141;" horiz-adv-x="522" 
d="M21 202l20 111l55 22l49 279h129l-42 -235l131 53l-20 -111l-131 -52l-27 -156h287l-20 -113h-415l39 224z" />
    <glyph glyph-name="Oslash" unicode="&#xd8;" horiz-adv-x="649" 
d="M46 31l54 61c-34 47 -52 107 -52 177c0 203 141 355 318 355c64 0 120 -18 163 -50l47 53l57 -44l-54 -61c34 -47 53 -108 53 -177c0 -203 -142 -355 -318 -355c-65 0 -120 18 -163 50l-47 -53zM316 102c105 0 188 97 188 242c0 28 -5 55 -14 78l-258 -291
c22 -18 50 -29 84 -29zM176 270c0 -28 4 -55 13 -78l258 290c-22 19 -50 30 -83 30c-105 0 -188 -97 -188 -242z" />
    <glyph glyph-name="OE" unicode="&#x152;" horiz-adv-x="826" 
d="M858 614l-20 -112h-267l-25 -134h242l-20 -109h-241l-25 -146h267l-19 -113h-447c-170 0 -260 96 -260 258c0 200 139 356 356 356h459zM172 265c0 -96 49 -153 152 -153h52l69 389h-60c-134 0 -213 -99 -213 -236z" />
    <glyph glyph-name="ordmasculine" unicode="&#xba;" horiz-adv-x="347" 
d="M204 399c38 0 63 41 63 94c0 30 -15 51 -42 51c-37 0 -63 -41 -63 -95c0 -29 15 -50 42 -50zM201 313c-83 0 -140 54 -140 137c0 106 75 179 167 179c84 0 140 -53 140 -136c0 -106 -75 -180 -167 -180z" />
    <glyph glyph-name="ae" unicode="&#xe6;" horiz-adv-x="738" 
d="M580 144h121c-27 -94 -104 -154 -214 -154c-68 0 -121 23 -152 67c-44 -44 -107 -66 -172 -66c-88 0 -149 47 -149 126c0 99 94 156 203 156h96c3 17 3 24 3 30c0 31 -15 54 -59 54c-37 0 -62 -17 -77 -43h-118c27 81 107 143 207 143c63 0 103 -19 129 -59
c30 33 85 59 140 59c112 0 179 -70 179 -183c0 -21 -5 -54 -10 -80h-298v-9c1 -61 31 -95 85 -95c40 0 71 18 86 54zM288 136l11 58h-81c-42 0 -87 -15 -87 -63c0 -31 28 -46 63 -46c41 0 75 19 94 51zM532 356c-54 0 -89 -36 -106 -83h174c0 4 1 9 1 13c0 40 -26 70 -69 70
z" />
    <glyph glyph-name="dotlessi" unicode="&#x131;" horiz-adv-x="232" 
d="M219 447l-79 -447h-124l79 447h124z" />
    <glyph glyph-name="lslash" unicode="&#x142;" horiz-adv-x="274" 
d="M275 650l-40 -225l68 31l-18 -98l-67 -30l-57 -328h-124l49 278l-59 -27l18 98l58 27l48 274h124z" />
    <glyph glyph-name="oslash" unicode="&#xf8;" horiz-adv-x="500" 
d="M23 6l47 54c-25 34 -39 78 -39 130c0 155 107 267 239 267c46 0 86 -11 117 -32l44 50l46 -36l-47 -54c25 -33 39 -77 39 -128c0 -155 -107 -267 -239 -267c-46 0 -85 10 -116 30l-44 -50zM148 187c0 -12 1 -23 4 -33l163 188c-12 9 -28 14 -47 14
c-68 0 -120 -75 -120 -169zM232 91c68 0 120 75 120 169c0 11 -1 21 -4 31l-162 -188c12 -8 28 -12 46 -12z" />
    <glyph glyph-name="oe" unicode="&#x153;" horiz-adv-x="779" 
d="M622 146h120c-27 -95 -103 -156 -214 -156c-66 0 -119 28 -150 69c-38 -41 -95 -69 -153 -69c-124 0 -199 80 -199 200c0 155 107 267 239 267c66 0 117 -27 149 -70c40 41 95 70 162 70c115 0 182 -70 182 -183c0 -21 -4 -50 -9 -77h-299v-8c0 -62 29 -99 86 -99
c39 0 70 19 86 56zM227 95c67 0 114 70 114 163c0 55 -28 94 -78 94c-67 0 -114 -70 -114 -163c0 -55 28 -94 78 -94zM571 356c-54 0 -89 -36 -107 -84h175c1 5 1 8 1 12c0 41 -26 72 -69 72z" />
    <glyph glyph-name="germandbls" unicode="&#xdf;" horiz-adv-x="529" 
d="M415 360c51 -19 85 -70 85 -144c0 -139 -110 -221 -230 -221c-34 0 -57 3 -81 11l18 104c13 -5 34 -9 59 -9c66 0 117 43 117 116c0 53 -35 84 -103 84h-35l18 101h30c53 0 96 30 96 89c0 37 -23 63 -68 63c-59 0 -93 -45 -103 -102l-79 -452h-123l78 447
c23 131 113 212 237 212c117 0 177 -62 177 -147c0 -77 -47 -132 -93 -152z" />
    <glyph glyph-name="onesuperior" unicode="&#xb9;" horiz-adv-x="244" 
d="M261 614l-60 -341h-92l42 236l-84 -38l15 92l116 51h63z" />
    <glyph glyph-name="trademark" unicode="&#x2122;" horiz-adv-x="602" 
d="M74 550l12 64h228l-12 -64h-77l-34 -190h-73l33 190h-77zM467 360h-46l-25 146l-26 -146h-67l45 254h87l26 -153l81 153h89l-45 -254h-68l26 146z" />
    <glyph glyph-name="Eth" unicode="&#xd0;" horiz-adv-x="626" 
d="M33 264l18 103h50l44 247h208c170 0 260 -96 260 -258c0 -200 -138 -356 -356 -356h-220l46 264h-50zM184 113h87c135 0 213 99 213 236c0 96 -49 153 -151 153h-80l-24 -135h103l-18 -103h-103z" />
    <glyph glyph-name="onehalf" unicode="&#xbd;" horiz-adv-x="716" 
d="M667 614l-536 -614h-93l536 614h93zM274 614l-60 -341h-88l42 237l-96 -43l17 92l125 55h60zM387 61l143 119c19 16 46 39 46 62c0 15 -9 24 -25 24c-20 0 -36 -18 -40 -34h-95c17 64 68 114 143 114c69 0 109 -35 109 -91c0 -52 -38 -86 -82 -123l-66 -54h119l-13 -78
h-249z" />
    <glyph glyph-name="plusminus" unicode="&#xb1;" horiz-adv-x="569" 
d="M297 548h90l-23 -130h164l-16 -90h-164l-23 -130h-91l23 130h-164l16 90h164zM46 62l16 91h419l-16 -91h-419z" />
    <glyph glyph-name="Thorn" unicode="&#xde;" horiz-adv-x="551" 
d="M293 114h-124l-19 -114h-128l108 614h127l-17 -99h118c117 0 188 -60 188 -173c0 -146 -113 -228 -253 -228zM221 406l-32 -183h115c72 0 115 42 115 108c0 45 -26 75 -84 75h-114z" />
    <glyph glyph-name="onequarter" unicode="&#xbc;" horiz-adv-x="702" 
d="M667 614l-536 -614h-93l536 614h93zM274 614l-60 -341h-88l42 237l-96 -43l17 92l125 55h60zM598 341l-133 -204h54l10 55h79l-10 -55h48l-13 -75h-48l-10 -62h-80l11 62h-152l11 68l144 211h89z" />
    <glyph glyph-name="divide" unicode="&#xf7;" horiz-adv-x="560" 
d="M68 251l17 96h432l-17 -96h-432zM254 472c0 39 31 71 70 71c40 0 72 -32 72 -71s-32 -70 -72 -70c-39 0 -70 31 -70 70zM193 126c0 39 31 70 70 70s71 -31 71 -70s-32 -71 -71 -71s-70 32 -70 71z" />
    <glyph glyph-name="degree" unicode="&#xb0;" horiz-adv-x="357" 
d="M224 624c71 0 124 -55 124 -126c0 -80 -66 -147 -145 -147c-71 0 -125 55 -125 126c0 80 66 147 146 147zM218 549c-32 0 -64 -29 -64 -68c0 -30 24 -55 55 -55c32 0 64 29 64 68c0 30 -24 55 -55 55z" />
    <glyph glyph-name="thorn" unicode="&#xfe;" horiz-adv-x="522" 
d="M147 38l-36 -203h-124l143 815h124l-43 -245c25 28 70 52 118 52c111 0 168 -85 168 -194c0 -152 -100 -273 -239 -273c-54 0 -95 23 -111 48zM191 291l-24 -141c9 -31 38 -52 79 -52c77 0 125 67 125 158c0 53 -29 93 -82 93c-45 0 -77 -27 -98 -58z" />
    <glyph glyph-name="threequarters" unicode="&#xbe;" horiz-adv-x="736" 
d="M700 614l-536 -614h-92l536 614h92zM168 412l12 66h20c27 0 49 11 49 39c0 14 -10 26 -29 26c-23 0 -38 -17 -44 -37h-92c16 65 67 113 142 113c70 0 108 -39 108 -93c0 -40 -26 -72 -52 -83c21 -14 32 -37 32 -63c0 -65 -57 -113 -130 -113c-76 0 -124 44 -124 107
c0 4 1 9 1 9h92v-3c0 -21 11 -36 36 -36c22 0 40 14 40 37c0 20 -14 31 -38 31h-23zM632 341l-133 -204h54l9 55h80l-10 -55h48l-13 -75h-48l-11 -62h-79l11 62h-152l11 68l143 211h90z" />
    <glyph glyph-name="twosuperior" unicode="&#xb2;" horiz-adv-x="309" 
d="M45 333l143 120c19 16 43 37 43 59c0 15 -9 24 -24 24c-20 0 -33 -16 -37 -32h-97c18 64 68 115 144 115c69 0 109 -36 109 -91s-37 -87 -81 -123l-63 -53h115l-13 -79h-249z" />
    <glyph glyph-name="registered" unicode="&#xae;" horiz-adv-x="407" 
d="M418 441c0 -106 -82 -183 -181 -183s-181 77 -181 183s82 183 181 183s181 -77 181 -183zM385 441c0 89 -66 152 -148 152s-148 -63 -148 -152s66 -152 148 -152s148 63 148 152zM233 407h-17v-61h-54v192h91c43 0 70 -25 70 -67c0 -30 -13 -50 -37 -58l44 -67h-59z
M271 471c0 13 -8 22 -25 22h-30v-43h30c17 0 25 8 25 21z" />
    <glyph glyph-name="minus" unicode="&#x2212;" horiz-adv-x="560" 
d="M68 251l17 96h432l-17 -96h-432z" />
    <glyph glyph-name="eth" unicode="&#xf0;" horiz-adv-x="490" 
d="M199 484l-21 61l71 23c-22 26 -48 53 -76 78v4h137c17 -15 32 -31 46 -48l82 27l21 -61l-63 -21c47 -80 68 -173 68 -255c0 -190 -107 -302 -239 -302c-124 0 -199 80 -199 200c0 155 106 265 232 265c29 0 54 -9 71 -25h3c-7 22 -21 51 -42 83zM227 95
c67 0 114 70 114 162c0 55 -28 94 -78 94c-67 0 -114 -70 -114 -163c0 -54 28 -93 78 -93z" />
    <glyph glyph-name="multiply" unicode="&#xd7;" horiz-adv-x="495" 
d="M197 299l-101 121l74 63l99 -121l144 122l55 -66l-144 -122l100 -121l-74 -63l-100 121l-143 -122l-55 67z" />
    <glyph glyph-name="copyright" unicode="&#xa9;" horiz-adv-x="704" 
d="M685 307c0 -184 -143 -317 -317 -317s-317 133 -317 317s143 317 317 317s317 -133 317 -317zM638 307c0 157 -122 271 -270 271s-270 -114 -270 -271s122 -271 270 -271s270 114 270 271zM184 309c0 117 77 199 187 199c99 0 155 -58 168 -137h-104
c-10 28 -31 43 -64 43c-53 0 -83 -45 -83 -105s30 -106 83 -106c33 0 54 16 64 44h104c-13 -79 -70 -137 -168 -137c-110 0 -187 82 -187 199z" />
    <glyph glyph-name="Aacute" unicode="&#xc1;" horiz-adv-x="627" 
d="M327 614h127l122 -614h-128l-28 148h-230l-82 -148h-129zM457 669h-126l100 122h139zM363 460l-113 -204h150z" />
    <glyph glyph-name="Acircumflex" unicode="&#xc2;" horiz-adv-x="627" 
d="M327 614h127l122 -614h-128l-28 148h-230l-82 -148h-129zM469 796l77 -127h-101l-38 54l-56 -54h-109l123 127h104zM363 460l-113 -204h150z" />
    <glyph glyph-name="Adieresis" unicode="&#xc4;" horiz-adv-x="627" 
d="M327 614h127l122 -614h-128l-28 148h-230l-82 -148h-129zM363 460l-113 -204h150zM423 730c0 39 30 68 67 68s68 -29 68 -68c0 -36 -31 -66 -68 -66s-67 30 -67 66zM258 730c0 39 29 68 67 68c37 0 67 -29 67 -68c0 -36 -30 -66 -67 -66c-38 0 -67 30 -67 66z" />
    <glyph glyph-name="Agrave" unicode="&#xc0;" horiz-adv-x="627" 
d="M327 614h127l122 -614h-128l-28 148h-230l-82 -148h-129zM363 460l-113 -204h150zM456 669h-114l-71 122h128z" />
    <glyph glyph-name="Aring" unicode="&#xc5;" horiz-adv-x="627" 
d="M327 614h127l122 -614h-128l-28 148h-230l-82 -148h-129zM405 646c-54 0 -95 40 -95 93c0 55 45 101 104 101c55 0 95 -40 95 -93c0 -55 -45 -101 -104 -101zM363 460l-113 -204h150zM408 704c21 0 41 16 41 41c0 21 -16 38 -37 38c-22 0 -42 -17 -42 -42
c0 -21 17 -37 38 -37z" />
    <glyph glyph-name="Atilde" unicode="&#xc3;" horiz-adv-x="627" 
d="M327 614h127l122 -614h-128l-28 148h-230l-82 -148h-129zM493 804h74c-13 -79 -50 -140 -110 -140c-44 0 -64 46 -94 46c-19 0 -31 -16 -36 -42h-74c14 79 50 139 109 139c45 0 66 -45 95 -45c18 0 31 15 36 42zM363 460l-113 -204h150z" />
    <glyph glyph-name="Ccedilla" unicode="&#xc7;" horiz-adv-x="603" 
d="M43 269c0 185 126 355 316 355c143 0 229 -85 239 -208h-127c-12 55 -49 94 -114 94c-117 0 -184 -110 -184 -240c0 -97 53 -166 139 -166c70 0 111 36 138 95h128c-37 -124 -129 -209 -268 -209c-159 0 -267 113 -267 279zM230 -186h-114l95 139h117z" />
    <glyph glyph-name="Eacute" unicode="&#xc9;" horiz-adv-x="516" 
d="M406 669h-126l100 122h139zM130 614h418l-20 -112h-291l-24 -134h265l-20 -109h-264l-26 -146h291l-19 -113h-418z" />
    <glyph glyph-name="Ecircumflex" unicode="&#xca;" horiz-adv-x="516" 
d="M130 614h418l-20 -112h-291l-24 -134h265l-20 -109h-264l-26 -146h291l-19 -113h-418zM420 796l77 -127h-101l-38 54l-56 -54h-109l123 127h104z" />
    <glyph glyph-name="Edieresis" unicode="&#xcb;" horiz-adv-x="516" 
d="M210 730c0 39 29 68 67 68c37 0 67 -29 67 -68c0 -36 -30 -66 -67 -66c-38 0 -67 30 -67 66zM375 730c0 39 30 68 67 68s68 -29 68 -68c0 -36 -31 -66 -68 -66s-67 30 -67 66zM130 614h418l-20 -112h-291l-24 -134h265l-20 -109h-264l-26 -146h291l-19 -113h-418z" />
    <glyph glyph-name="Egrave" unicode="&#xc8;" horiz-adv-x="516" 
d="M405 669h-114l-71 122h128zM130 614h418l-20 -112h-291l-24 -134h265l-20 -109h-264l-26 -146h291l-19 -113h-418z" />
    <glyph glyph-name="Iacute" unicode="&#xcd;" horiz-adv-x="245" 
d="M259 614l-108 -614h-129l108 614h129zM262 669h-126l100 122h139z" />
    <glyph glyph-name="Icircumflex" unicode="&#xce;" horiz-adv-x="245" 
d="M259 614l-108 -614h-129l108 614h129zM276 796l77 -127h-101l-38 54l-56 -54h-109l123 127h104z" />
    <glyph glyph-name="Idieresis" unicode="&#xcf;" horiz-adv-x="245" 
d="M259 614l-108 -614h-129l108 614h129zM66 730c0 39 29 68 67 68c37 0 67 -29 67 -68c0 -36 -30 -66 -67 -66c-38 0 -67 30 -67 66zM231 730c0 39 30 68 67 68s68 -29 68 -68c0 -36 -31 -66 -68 -66s-67 30 -67 66z" />
    <glyph glyph-name="Igrave" unicode="&#xcc;" horiz-adv-x="245" 
d="M259 614l-108 -614h-129l108 614h129zM260 669h-114l-71 122h128z" />
    <glyph glyph-name="Ntilde" unicode="&#xd1;" horiz-adv-x="631" 
d="M492 804h74c-13 -79 -50 -140 -110 -140c-44 0 -64 46 -94 46c-19 0 -31 -16 -36 -42h-74c14 79 50 139 109 139c45 0 66 -45 95 -45c18 0 31 15 36 42zM644 614l-108 -614h-99l-218 421l-73 -421h-124l108 614h118l202 -400l70 400h124z" />
    <glyph glyph-name="Oacute" unicode="&#xd3;" horiz-adv-x="640" 
d="M453 669h-126l100 122h139zM311 104c105 0 187 95 187 240c0 94 -53 166 -139 166c-105 0 -186 -95 -186 -240c0 -94 52 -166 138 -166zM309 -10c-163 0 -266 115 -266 279c0 203 142 355 318 355c163 0 266 -115 266 -279c0 -203 -141 -355 -318 -355z" />
    <glyph glyph-name="Ocircumflex" unicode="&#xd4;" horiz-adv-x="640" 
d="M311 104c105 0 187 95 187 240c0 94 -53 166 -139 166c-105 0 -186 -95 -186 -240c0 -94 52 -166 138 -166zM309 -10c-163 0 -266 115 -266 279c0 203 142 355 318 355c163 0 266 -115 266 -279c0 -203 -141 -355 -318 -355zM467 796l77 -127h-101l-38 54l-56 -54h-109
l123 127h104z" />
    <glyph glyph-name="Odieresis" unicode="&#xd6;" horiz-adv-x="640" 
d="M256 730c0 39 29 68 67 68c37 0 67 -29 67 -68c0 -36 -30 -66 -67 -66c-38 0 -67 30 -67 66zM421 730c0 39 30 68 67 68s68 -29 68 -68c0 -36 -31 -66 -68 -66s-67 30 -67 66zM311 104c105 0 187 95 187 240c0 94 -53 166 -139 166c-105 0 -186 -95 -186 -240
c0 -94 52 -166 138 -166zM309 -10c-163 0 -266 115 -266 279c0 203 142 355 318 355c163 0 266 -115 266 -279c0 -203 -141 -355 -318 -355z" />
    <glyph glyph-name="Ograve" unicode="&#xd2;" horiz-adv-x="640" 
d="M452 669h-114l-71 122h128zM311 104c105 0 187 95 187 240c0 94 -53 166 -139 166c-105 0 -186 -95 -186 -240c0 -94 52 -166 138 -166zM309 -10c-163 0 -266 115 -266 279c0 203 142 355 318 355c163 0 266 -115 266 -279c0 -203 -141 -355 -318 -355z" />
    <glyph glyph-name="Otilde" unicode="&#xd5;" horiz-adv-x="640" 
d="M489 804h74c-13 -79 -50 -140 -110 -140c-44 0 -64 46 -94 46c-19 0 -31 -16 -36 -42h-74c14 79 50 139 109 139c45 0 66 -45 95 -45c18 0 31 15 36 42zM311 104c105 0 187 95 187 240c0 94 -53 166 -139 166c-105 0 -186 -95 -186 -240c0 -94 52 -166 138 -166zM309 -10
c-163 0 -266 115 -266 279c0 203 142 355 318 355c163 0 266 -115 266 -279c0 -203 -141 -355 -318 -355z" />
    <glyph glyph-name="Scaron" unicode="&#x160;" horiz-adv-x="531" 
d="M283 668l-77 127h101l38 -54l56 54h109l-123 -127h-104zM533 441h-126c-6 43 -42 78 -104 78c-59 0 -101 -30 -101 -80c0 -29 14 -48 56 -60l105 -31c82 -25 129 -72 129 -149c0 -132 -111 -209 -240 -209c-136 0 -229 67 -239 190h128c10 -57 57 -84 112 -84
c65 0 110 29 110 85c0 29 -18 49 -66 63l-99 28c-72 21 -125 61 -125 147c0 120 99 205 231 205c145 0 222 -76 229 -183z" />
    <glyph glyph-name="Uacute" unicode="&#xda;" horiz-adv-x="610" 
d="M440 669h-126l100 122h139zM284 -10c-139 0 -232 71 -232 203c0 18 2 38 8 67l62 354h128l-63 -354c-2 -17 -4 -32 -4 -46c0 -70 35 -109 106 -109c85 0 134 50 153 155l62 354h128l-65 -367c-29 -167 -130 -257 -283 -257z" />
    <glyph glyph-name="Ucircumflex" unicode="&#xdb;" horiz-adv-x="610" 
d="M284 -10c-139 0 -232 71 -232 203c0 18 2 38 8 67l62 354h128l-63 -354c-2 -17 -4 -32 -4 -46c0 -70 35 -109 106 -109c85 0 134 50 153 155l62 354h128l-65 -367c-29 -167 -130 -257 -283 -257zM453 796l77 -127h-101l-38 54l-56 -54h-109l123 127h104z" />
    <glyph glyph-name="Udieresis" unicode="&#xdc;" horiz-adv-x="610" 
d="M244 730c0 39 29 68 67 68c37 0 67 -29 67 -68c0 -36 -30 -66 -67 -66c-38 0 -67 30 -67 66zM409 730c0 39 30 68 67 68s68 -29 68 -68c0 -36 -31 -66 -68 -66s-67 30 -67 66zM284 -10c-139 0 -232 71 -232 203c0 18 2 38 8 67l62 354h128l-63 -354c-2 -17 -4 -32 -4 -46
c0 -70 35 -109 106 -109c85 0 134 50 153 155l62 354h128l-65 -367c-29 -167 -130 -257 -283 -257z" />
    <glyph glyph-name="Ugrave" unicode="&#xd9;" horiz-adv-x="610" 
d="M438 669h-114l-71 122h128zM284 -10c-139 0 -232 71 -232 203c0 18 2 38 8 67l62 354h128l-63 -354c-2 -17 -4 -32 -4 -46c0 -70 35 -109 106 -109c85 0 134 50 153 155l62 354h128l-65 -367c-29 -167 -130 -257 -283 -257z" />
    <glyph glyph-name="Yacute" unicode="&#xdd;" horiz-adv-x="593" 
d="M319 354l194 260h141l-290 -381l-41 -233h-127l40 233l-153 381h134zM433 669h-126l100 122h139z" />
    <glyph glyph-name="Ydieresis" unicode="&#x178;" horiz-adv-x="593" 
d="M319 354l194 260h141l-290 -381l-41 -233h-127l40 233l-153 381h134zM237 730c0 39 29 68 67 68c37 0 67 -29 67 -68c0 -36 -30 -66 -67 -66c-38 0 -67 30 -67 66zM402 730c0 39 30 68 67 68s68 -29 68 -68c0 -36 -31 -66 -68 -66s-67 30 -67 66z" />
    <glyph glyph-name="Zcaron" unicode="&#x17d;" horiz-adv-x="554" 
d="M305 668l-77 127h101l38 -54l56 54h109l-123 -127h-104zM499 113l-20 -113h-474l16 93l378 409h-299l20 112h465l-17 -92l-375 -409h306z" />
    <glyph glyph-name="aacute" unicode="&#xe1;" horiz-adv-x="473" 
d="M436 285l-50 -285h-120l4 24c-18 -15 -57 -32 -105 -32c-83 0 -151 47 -151 129c0 99 93 159 195 159c44 0 84 -12 102 -26l6 32c1 5 2 12 2 18c0 30 -18 52 -59 52c-37 0 -61 -16 -76 -42h-118c25 82 105 143 209 143c102 0 164 -56 164 -140c0 -10 -1 -21 -3 -32z
M287 121l6 33c-7 24 -37 39 -73 39c-40 0 -89 -19 -89 -64c0 -32 35 -46 71 -46c35 0 70 14 85 38zM349 508h-115l105 142h124z" />
    <glyph glyph-name="acircumflex" unicode="&#xe2;" horiz-adv-x="473" 
d="M370 647l70 -145h-95l-37 69l-61 -69h-101l120 145h104zM436 285l-50 -285h-120l4 24c-18 -15 -57 -32 -105 -32c-83 0 -151 47 -151 129c0 99 93 159 195 159c44 0 84 -12 102 -26l6 32c1 5 2 12 2 18c0 30 -18 52 -59 52c-37 0 -61 -16 -76 -42h-118
c25 82 105 143 209 143c102 0 164 -56 164 -140c0 -10 -1 -21 -3 -32zM287 121l6 33c-7 24 -37 39 -73 39c-40 0 -89 -19 -89 -64c0 -32 35 -46 71 -46c35 0 70 14 85 38z" />
    <glyph glyph-name="adieresis" unicode="&#xe4;" horiz-adv-x="473" 
d="M159 570c0 38 30 67 67 67c36 0 66 -29 66 -67c0 -36 -30 -66 -66 -66c-37 0 -67 30 -67 66zM323 570c0 38 30 67 66 67s67 -29 67 -67c0 -36 -31 -66 -67 -66s-66 30 -66 66zM436 285l-50 -285h-120l4 24c-18 -15 -57 -32 -105 -32c-83 0 -151 47 -151 129
c0 99 93 159 195 159c44 0 84 -12 102 -26l6 32c1 5 2 12 2 18c0 30 -18 52 -59 52c-37 0 -61 -16 -76 -42h-118c25 82 105 143 209 143c102 0 164 -56 164 -140c0 -10 -1 -21 -3 -32zM287 121l6 33c-7 24 -37 39 -73 39c-40 0 -89 -19 -89 -64c0 -32 35 -46 71 -46
c35 0 70 14 85 38z" />
    <glyph glyph-name="agrave" unicode="&#xe0;" horiz-adv-x="473" 
d="M436 285l-50 -285h-120l4 24c-18 -15 -57 -32 -105 -32c-83 0 -151 47 -151 129c0 99 93 159 195 159c44 0 84 -12 102 -26l6 32c1 5 2 12 2 18c0 30 -18 52 -59 52c-37 0 -61 -16 -76 -42h-118c25 82 105 143 209 143c102 0 164 -56 164 -140c0 -10 -1 -21 -3 -32z
M287 121l6 33c-7 24 -37 39 -73 39c-40 0 -89 -19 -89 -64c0 -32 35 -46 71 -46c35 0 70 14 85 38zM347 508h-105l-64 142h115z" />
    <glyph glyph-name="aring" unicode="&#xe5;" horiz-adv-x="473" 
d="M436 285l-50 -285h-120l4 24c-18 -15 -57 -32 -105 -32c-83 0 -151 47 -151 129c0 99 93 159 195 159c44 0 84 -12 102 -26l6 32c1 5 2 12 2 18c0 30 -18 52 -59 52c-37 0 -61 -16 -76 -42h-118c25 82 105 143 209 143c102 0 164 -56 164 -140c0 -10 -1 -21 -3 -32z
M287 121l6 33c-7 24 -37 39 -73 39c-40 0 -89 -19 -89 -64c0 -32 35 -46 71 -46c35 0 70 14 85 38zM309 545c22 0 41 16 41 41c0 21 -16 38 -37 38c-22 0 -41 -17 -41 -42c0 -21 16 -37 37 -37zM307 487c-55 0 -95 40 -95 93c0 55 45 101 103 101c55 0 95 -40 95 -93
c0 -54 -45 -101 -103 -101z" />
    <glyph glyph-name="atilde" unicode="&#xe3;" horiz-adv-x="473" 
d="M436 285l-50 -285h-120l4 24c-18 -15 -57 -32 -105 -32c-83 0 -151 47 -151 129c0 99 93 159 195 159c44 0 84 -12 102 -26l6 32c1 5 2 12 2 18c0 30 -18 52 -59 52c-37 0 -61 -16 -76 -42h-118c25 82 105 143 209 143c102 0 164 -56 164 -140c0 -10 -1 -21 -3 -32z
M287 121l6 33c-7 24 -37 39 -73 39c-40 0 -89 -19 -89 -64c0 -32 35 -46 71 -46c35 0 70 14 85 38zM390 643h73c-13 -79 -49 -139 -109 -139c-44 0 -59 46 -89 46c-19 0 -31 -16 -37 -42h-73c14 79 50 139 109 139c45 0 60 -46 89 -46c19 0 32 16 37 42z" />
    <glyph glyph-name="ccedilla" unicode="&#xe7;" horiz-adv-x="459" 
d="M307 151h121c-24 -100 -99 -161 -210 -161c-118 0 -192 82 -192 200c0 139 95 267 241 267c114 0 176 -65 180 -161h-122c-3 33 -24 55 -62 55c-77 0 -113 -83 -113 -159c0 -59 28 -96 77 -96c40 0 67 21 80 55zM161 -186h-114l95 139h117z" />
    <glyph glyph-name="eacute" unicode="&#xe9;" horiz-adv-x="474" 
d="M317 146h120c-27 -95 -103 -156 -214 -156c-123 0 -197 80 -197 200c0 135 93 267 245 267c115 0 181 -70 181 -183c0 -21 -3 -50 -9 -77h-298v-8c0 -62 29 -99 86 -99c39 0 70 19 86 56zM343 508h-115l105 142h124zM266 356c-54 0 -89 -37 -107 -84h175c1 5 1 8 1 12
c0 41 -26 72 -69 72z" />
    <glyph glyph-name="ecircumflex" unicode="&#xea;" horiz-adv-x="474" 
d="M317 146h120c-27 -95 -103 -156 -214 -156c-123 0 -197 80 -197 200c0 135 93 267 245 267c115 0 181 -70 181 -183c0 -21 -3 -50 -9 -77h-298v-8c0 -62 29 -99 86 -99c39 0 70 19 86 56zM364 647l70 -145h-95l-37 69l-61 -69h-101l120 145h104zM266 356
c-54 0 -89 -37 -107 -84h175c1 5 1 8 1 12c0 41 -26 72 -69 72z" />
    <glyph glyph-name="edieresis" unicode="&#xeb;" horiz-adv-x="474" 
d="M317 146h120c-27 -95 -103 -156 -214 -156c-123 0 -197 80 -197 200c0 135 93 267 245 267c115 0 181 -70 181 -183c0 -21 -3 -50 -9 -77h-298v-8c0 -62 29 -99 86 -99c39 0 70 19 86 56zM154 570c0 38 30 67 67 67c36 0 66 -29 66 -67c0 -36 -30 -66 -66 -66
c-37 0 -67 30 -67 66zM318 570c0 38 30 67 66 67s67 -29 67 -67c0 -36 -31 -66 -67 -66s-66 30 -66 66zM266 356c-54 0 -89 -37 -107 -84h175c1 5 1 8 1 12c0 41 -26 72 -69 72z" />
    <glyph glyph-name="egrave" unicode="&#xe8;" horiz-adv-x="474" 
d="M317 146h120c-27 -95 -103 -156 -214 -156c-123 0 -197 80 -197 200c0 135 93 267 245 267c115 0 181 -70 181 -183c0 -21 -3 -50 -9 -77h-298v-8c0 -62 29 -99 86 -99c39 0 70 19 86 56zM342 508h-105l-64 142h115zM266 356c-54 0 -89 -37 -107 -84h175c1 5 1 8 1 12
c0 41 -26 72 -69 72z" />
    <glyph glyph-name="iacute" unicode="&#xed;" horiz-adv-x="232" 
d="M219 508h-115l105 142h124zM219 447l-79 -447h-124l79 447h124z" />
    <glyph glyph-name="icircumflex" unicode="&#xee;" horiz-adv-x="232" 
d="M242 647l56 -145h-94l-25 67l-49 -67h-99l107 145h104zM219 447l-79 -447h-124l79 447h124z" />
    <glyph glyph-name="idieresis" unicode="&#xef;" horiz-adv-x="232" 
d="M37 570c0 38 29 67 66 67s67 -29 67 -67c0 -36 -30 -66 -67 -66s-66 30 -66 66zM190 570c0 38 30 67 66 67c37 0 67 -29 67 -67c0 -36 -30 -66 -67 -66c-36 0 -66 30 -66 66zM219 447l-79 -447h-124l79 447h124z" />
    <glyph glyph-name="igrave" unicode="&#xec;" horiz-adv-x="232" 
d="M219 447l-79 -447h-124l79 447h124zM218 508h-105l-64 142h115z" />
    <glyph glyph-name="ntilde" unicode="&#xf1;" horiz-adv-x="505" 
d="M16 0l79 447h124l-8 -42c27 28 71 52 128 52c85 0 133 -55 133 -132c0 -11 -1 -23 -3 -35l-50 -290h-125l46 266c2 9 3 16 3 22c0 35 -19 57 -61 57c-38 0 -75 -25 -92 -62l-50 -283h-124zM403 643h73c-13 -79 -49 -139 -109 -139c-44 0 -59 46 -89 46
c-19 0 -31 -16 -37 -42h-73c14 79 50 139 109 139c45 0 60 -46 89 -46c19 0 32 16 37 42z" />
    <glyph glyph-name="oacute" unicode="&#xf3;" horiz-adv-x="490" 
d="M344 508h-115l105 142h124zM227 95c67 0 114 70 114 163c0 55 -28 94 -78 94c-67 0 -114 -70 -114 -163c0 -55 28 -94 78 -94zM225 -10c-124 0 -199 80 -199 200c0 155 107 267 239 267c124 0 199 -80 199 -200c0 -155 -107 -267 -239 -267z" />
    <glyph glyph-name="ocircumflex" unicode="&#xf4;" horiz-adv-x="490" 
d="M365 647l70 -145h-95l-37 69l-61 -69h-101l120 145h104zM227 95c67 0 114 70 114 163c0 55 -28 94 -78 94c-67 0 -114 -70 -114 -163c0 -55 28 -94 78 -94zM225 -10c-124 0 -199 80 -199 200c0 155 107 267 239 267c124 0 199 -80 199 -200c0 -155 -107 -267 -239 -267z
" />
    <glyph glyph-name="odieresis" unicode="&#xf6;" horiz-adv-x="490" 
d="M155 570c0 38 30 67 67 67c36 0 66 -29 66 -67c0 -36 -30 -66 -66 -66c-37 0 -67 30 -67 66zM319 570c0 38 30 67 66 67s67 -29 67 -67c0 -36 -31 -66 -67 -66s-66 30 -66 66zM227 95c67 0 114 70 114 163c0 55 -28 94 -78 94c-67 0 -114 -70 -114 -163
c0 -55 28 -94 78 -94zM225 -10c-124 0 -199 80 -199 200c0 155 107 267 239 267c124 0 199 -80 199 -200c0 -155 -107 -267 -239 -267z" />
    <glyph glyph-name="ograve" unicode="&#xf2;" horiz-adv-x="490" 
d="M227 95c67 0 114 70 114 163c0 55 -28 94 -78 94c-67 0 -114 -70 -114 -163c0 -55 28 -94 78 -94zM225 -10c-124 0 -199 80 -199 200c0 155 107 267 239 267c124 0 199 -80 199 -200c0 -155 -107 -267 -239 -267zM342 508h-105l-64 142h115z" />
    <glyph glyph-name="otilde" unicode="&#xf5;" horiz-adv-x="490" 
d="M227 95c67 0 114 70 114 163c0 55 -28 94 -78 94c-67 0 -114 -70 -114 -163c0 -55 28 -94 78 -94zM225 -10c-124 0 -199 80 -199 200c0 155 107 267 239 267c124 0 199 -80 199 -200c0 -155 -107 -267 -239 -267zM386 643h73c-13 -79 -49 -139 -109 -139
c-44 0 -59 46 -89 46c-19 0 -31 -16 -37 -42h-73c14 79 50 139 109 139c45 0 60 -46 89 -46c19 0 32 16 37 42z" />
    <glyph glyph-name="scaron" unicode="&#x161;" horiz-adv-x="437" 
d="M216 502l-70 145h95l37 -69l61 69h101l-120 -145h-104zM9 135h118c6 -37 38 -51 73 -51c39 0 67 14 67 44c0 20 -9 29 -39 37l-76 21c-62 17 -102 51 -102 117c0 93 85 154 186 154c120 0 175 -60 181 -140h-115c-5 26 -27 46 -66 46c-36 0 -63 -17 -63 -44
c0 -16 10 -26 31 -33l82 -24c72 -21 104 -61 104 -117c0 -102 -89 -155 -192 -155c-117 0 -184 60 -189 145z" />
    <glyph glyph-name="uacute" unicode="&#xfa;" horiz-adv-x="501" 
d="M350 508h-115l105 142h124zM487 447l-78 -447h-124l7 41c-27 -27 -71 -51 -127 -51c-85 0 -132 54 -132 131c0 11 1 23 3 36l51 290h124l-46 -269c-2 -9 -3 -17 -3 -26c0 -33 16 -55 58 -55c39 0 77 28 93 65l50 285h124z" />
    <glyph glyph-name="ucircumflex" unicode="&#xfb;" horiz-adv-x="501" 
d="M372 647l70 -145h-95l-37 69l-61 -69h-101l120 145h104zM487 447l-78 -447h-124l7 41c-27 -27 -71 -51 -127 -51c-85 0 -132 54 -132 131c0 11 1 23 3 36l51 290h124l-46 -269c-2 -9 -3 -17 -3 -26c0 -33 16 -55 58 -55c39 0 77 28 93 65l50 285h124z" />
    <glyph glyph-name="udieresis" unicode="&#xfc;" horiz-adv-x="501" 
d="M162 570c0 38 30 67 67 67c36 0 66 -29 66 -67c0 -36 -30 -66 -66 -66c-37 0 -67 30 -67 66zM326 570c0 38 30 67 66 67s67 -29 67 -67c0 -36 -31 -66 -67 -66s-66 30 -66 66zM487 447l-78 -447h-124l7 41c-27 -27 -71 -51 -127 -51c-85 0 -132 54 -132 131
c0 11 1 23 3 36l51 290h124l-46 -269c-2 -9 -3 -17 -3 -26c0 -33 16 -55 58 -55c39 0 77 28 93 65l50 285h124z" />
    <glyph glyph-name="ugrave" unicode="&#xf9;" horiz-adv-x="501" 
d="M487 447l-78 -447h-124l7 41c-27 -27 -71 -51 -127 -51c-85 0 -132 54 -132 131c0 11 1 23 3 36l51 290h124l-46 -269c-2 -9 -3 -17 -3 -26c0 -33 16 -55 58 -55c39 0 77 28 93 65l50 285h124zM350 508h-105l-64 142h115z" />
    <glyph glyph-name="yacute" unicode="&#xfd;" horiz-adv-x="485" 
d="M147 -165h-124l101 172l-71 440h119l45 -297l166 297h129zM334 508h-115l105 142h124z" />
    <glyph glyph-name="ydieresis" unicode="&#xff;" horiz-adv-x="485" 
d="M147 -165h-124l101 172l-71 440h119l45 -297l166 297h129zM146 570c0 38 30 67 67 67c36 0 66 -29 66 -67c0 -36 -30 -66 -66 -66c-37 0 -67 30 -67 66zM310 570c0 38 30 67 66 67s67 -29 67 -67c0 -36 -31 -66 -67 -66s-66 30 -66 66z" />
    <glyph glyph-name="zcaron" unicode="&#x17e;" horiz-adv-x="450" 
d="M220 502l-70 145h95l37 -69l61 69h101l-120 -145h-104zM390 100l-17 -100h-374l14 80l261 267h-207l18 100h364l-15 -80l-258 -267h214z" />
    <glyph glyph-name="Euro" unicode="&#x20ac;" horiz-adv-x="552" 
d="M43 333l14 77h51c42 117 130 214 264 214c119 0 186 -72 196 -184h-114c-8 40 -39 72 -88 72c-65 0 -107 -45 -132 -102h170l-28 -77h-166c-3 -19 -5 -37 -6 -55h154l-29 -77h-122c12 -60 45 -99 102 -99c52 0 84 28 103 72h115c-39 -113 -118 -184 -229 -184
c-117 0 -198 84 -214 211h-64l14 77h47c1 18 4 36 7 55h-45z" />
    <glyph glyph-name="approxequal" unicode="&#x2248;" horiz-adv-x="576" 
d="M88 312l16 90c46 27 86 38 122 38c73 0 117 -37 190 -37c36 0 77 11 126 39l-16 -90c-48 -28 -90 -39 -126 -39c-73 0 -116 38 -189 38c-36 0 -77 -11 -123 -39zM61 159l15 89c47 28 88 39 123 39c73 0 117 -38 190 -38c36 0 77 10 126 39l-16 -90
c-48 -28 -90 -38 -126 -38c-73 0 -116 37 -189 37c-36 0 -76 -11 -123 -38z" />
    <glyph glyph-name="notequal" unicode="&#x2260;" horiz-adv-x="576" 
d="M93 338l15 87h257l80 94h82l-80 -94h92l-15 -87h-150l-65 -77h202l-16 -86h-259l-79 -94h-82l79 94h-90l15 86h148l65 77h-199z" />
    <glyph glyph-name="lessequal" unicode="&#x2264;" horiz-adv-x="448" 
d="M73 303l21 117l351 125l-20 -107l-248 -80l220 -80l-16 -98zM30 60l16 93h330l-17 -93h-329z" />
    <glyph glyph-name="greaterequal" unicode="&#x2265;" horiz-adv-x="448" 
d="M376 153l-17 -93h-329l16 93h330zM423 421l-20 -117l-352 -124l20 107l248 79l-220 81l16 98z" />
    <glyph glyph-name="threesuperior" unicode="&#xb3;" horiz-adv-x="309" 
d="M158 412l12 66h20c28 0 49 11 49 39c0 14 -10 26 -29 26c-22 0 -38 -17 -43 -37h-93c17 65 68 113 143 113c69 0 107 -39 107 -93c0 -40 -26 -72 -51 -83c21 -14 32 -37 32 -63c0 -65 -57 -113 -130 -113c-76 0 -125 44 -125 107c0 4 1 9 1 9h93v-3c0 -21 11 -36 35 -36
c22 0 41 14 41 37c0 20 -14 31 -38 31h-24z" />
    <glyph glyph-name="Tcedilla" unicode="&#x162;" horiz-adv-x="575" 
d="M154 -225l49 59c-25 8 -43 29 -43 60c0 39 30 67 69 67c38 0 70 -26 70 -71c0 -30 -16 -57 -39 -83l-27 -32h-79zM75 502l20 112h524l-20 -112h-198l-88 -502h-129l89 502h-198z" />
    <glyph glyph-name="tcedilla" unicode="&#x163;" horiz-adv-x="343" 
d="M67 -225l49 59c-25 8 -43 29 -43 60c0 39 30 67 69 67c38 0 70 -26 70 -71c0 -30 -16 -57 -39 -83l-27 -32h-79zM66 135l40 212h-70l18 100h70l22 121h123l-22 -121h96l-17 -100h-97l-36 -191c-1 -7 -2 -12 -2 -19c0 -26 16 -37 43 -37c19 0 42 6 57 15l-19 -110
c-19 -9 -50 -14 -82 -14c-79 0 -128 34 -128 108c0 11 2 23 4 36z" />
    <glyph glyph-name="i.dot" horiz-adv-x="232" 
d="M219 447l-79 -447h-124l79 447h124zM254 579c0 -42 -35 -71 -74 -71s-74 29 -74 71c0 41 35 71 74 71s74 -30 74 -71z" />
    <glyph glyph-name="uni0237" unicode="&#x237;" horiz-adv-x="232" 
d="M-99 -161l18 100c10 -7 24 -13 42 -13c30 0 44 17 52 57l82 464h124l-83 -465c-17 -101 -73 -157 -166 -157c-29 0 -54 6 -69 14z" />
    <glyph glyph-name="space_uni0326" horiz-adv-x="500" 
d="M178 -225l49 59c-25 8 -43 29 -43 60c0 39 30 67 69 67c38 0 70 -26 70 -71c0 -30 -16 -57 -39 -83l-27 -32h-79z" />
    <glyph glyph-name="space_uni0326.alt" horiz-adv-x="500" 
d="M323 696l-54 -64c25 -8 44 -30 44 -61c0 -39 -31 -66 -70 -66c-38 0 -70 26 -70 71c0 29 16 57 39 82l32 38h79z" />
    <glyph glyph-name="space_dotbelowcomb" horiz-adv-x="500" 
d="M323 -109c0 -41 -34 -70 -73 -70s-73 29 -73 70s34 70 73 70s73 -29 73 -70z" />
    <glyph glyph-name="uni2117" unicode="&#x2117;" horiz-adv-x="704" 
d="M685 307c0 -184 -143 -317 -317 -317s-317 133 -317 317s143 317 317 317s317 -133 317 -317zM638 307c0 157 -122 271 -270 271s-270 -114 -270 -271s122 -271 270 -271s270 114 270 271zM406 235h-68v-111h-97v369h165c81 0 135 -46 135 -129s-54 -129 -135 -129z
M446 364c0 27 -15 45 -49 45h-59v-90h59c34 0 49 18 49 45z" />
    <glyph glyph-name=".null" horiz-adv-x="0" 
 />
    <glyph glyph-name="Abreve" unicode="&#x102;" horiz-adv-x="627" 
d="M327 614h127l122 -614h-128l-28 148h-230l-82 -148h-129zM399 663c-76 0 -131 48 -116 134h88c-6 -33 10 -48 38 -48s50 15 55 48h88c-15 -87 -69 -134 -153 -134zM363 460l-113 -204h150z" />
    <glyph glyph-name="Amacron" unicode="&#x100;" horiz-adv-x="627" 
d="M327 614h127l122 -614h-128l-28 148h-230l-82 -148h-129zM275 669l16 91h243l-16 -91h-243zM363 460l-113 -204h150z" />
    <glyph glyph-name="Aogonek" unicode="&#x104;" horiz-adv-x="627" 
d="M327 614h127l122 -614c-36 -42 -64 -68 -64 -92c0 -10 6 -17 16 -17c12 0 21 5 39 16l-12 -74c-19 -12 -40 -21 -66 -21c-45 0 -69 24 -69 60c0 51 38 88 74 128h-46l-27 148h-231l-82 -148h-129zM363 460l-113 -204h151z" />
    <glyph glyph-name="Aringacute" unicode="&#x1fa;" horiz-adv-x="627" 
d="M327 614h127l122 -614h-128l-28 148h-230l-82 -148h-129zM402 632c-55 0 -95 34 -95 78c0 45 45 84 103 84c54 0 95 -33 95 -78s-45 -84 -103 -84zM363 460l-113 -204h150zM484 812h-119l77 94h133zM404 683c21 0 41 11 41 32c0 17 -17 29 -38 29s-40 -12 -40 -33
c0 -17 16 -28 37 -28z" />
    <glyph glyph-name="AEacute" unicode="&#x1fc;" horiz-adv-x="879" 
d="M428 614h483l-19 -112h-276l-25 -134h250l-19 -109h-250l-25 -146h276l-20 -113h-402l26 148h-204l-108 -148h-136zM492 517l-191 -261h145zM734 669h-126l100 122h139z" />
    <glyph glyph-name="Cacute" unicode="&#x106;" horiz-adv-x="603" 
d="M43 269c0 185 126 355 316 355c143 0 229 -85 239 -208h-127c-12 55 -49 94 -114 94c-117 0 -184 -110 -184 -240c0 -97 53 -166 139 -166c70 0 111 36 138 95h128c-37 -124 -129 -209 -268 -209c-159 0 -267 113 -267 279zM438 669h-126l100 122h139z" />
    <glyph glyph-name="Ccaron" unicode="&#x10c;" horiz-adv-x="603" 
d="M332 668l-77 127h101l38 -54l56 54h109l-123 -127h-104zM43 269c0 185 126 355 316 355c143 0 229 -85 239 -208h-127c-12 55 -49 94 -114 94c-117 0 -184 -110 -184 -240c0 -97 53 -166 139 -166c70 0 111 36 138 95h128c-37 -124 -129 -209 -268 -209
c-159 0 -267 113 -267 279z" />
    <glyph glyph-name="Ccircumflex" unicode="&#x108;" horiz-adv-x="603" 
d="M43 269c0 185 126 355 316 355c143 0 229 -85 239 -208h-127c-12 55 -49 94 -114 94c-117 0 -184 -110 -184 -240c0 -97 53 -166 139 -166c70 0 111 36 138 95h128c-37 -124 -129 -209 -268 -209c-159 0 -267 113 -267 279zM453 796l77 -127h-101l-38 54l-56 -54h-109
l123 127h104z" />
    <glyph glyph-name="Cdotaccent" unicode="&#x10a;" horiz-adv-x="603" 
d="M467 734c0 -41 -35 -71 -74 -71s-74 30 -74 71c0 42 35 71 74 71s74 -29 74 -71zM43 269c0 185 126 355 316 355c143 0 229 -85 239 -208h-127c-12 55 -49 94 -114 94c-117 0 -184 -110 -184 -240c0 -97 53 -166 139 -166c70 0 111 36 138 95h128
c-37 -124 -129 -209 -268 -209c-159 0 -267 113 -267 279z" />
    <glyph glyph-name="Dcaron" unicode="&#x10e;" horiz-adv-x="611" 
d="M309 668l-77 127h101l38 -54l56 54h109l-123 -127h-104zM169 113h87c135 0 213 99 213 236c0 96 -49 153 -151 153h-80zM22 0l108 614h208c170 0 260 -96 260 -258c0 -200 -138 -356 -356 -356h-220z" />
    <glyph glyph-name="Dcroat" unicode="&#x110;" horiz-adv-x="626" 
d="M33 264l18 103h50l44 247h208c170 0 260 -96 260 -258c0 -200 -138 -356 -356 -356h-220l46 264h-50zM184 113h87c135 0 213 99 213 236c0 96 -49 153 -151 153h-80l-24 -135h103l-18 -103h-103z" />
    <glyph glyph-name="Ebreve" unicode="&#x114;" horiz-adv-x="516" 
d="M353 663c-76 0 -131 48 -116 134h88c-6 -33 10 -48 38 -48s50 15 55 48h88c-15 -87 -69 -134 -153 -134zM130 614h418l-20 -112h-291l-24 -134h265l-20 -109h-264l-26 -146h291l-19 -113h-418z" />
    <glyph glyph-name="Ecaron" unicode="&#x11a;" horiz-adv-x="516" 
d="M299 668l-77 127h101l38 -54l56 54h109l-123 -127h-104zM130 614h418l-20 -112h-291l-24 -134h265l-20 -109h-264l-26 -146h291l-19 -113h-418z" />
    <glyph glyph-name="Edotaccent" unicode="&#x116;" horiz-adv-x="516" 
d="M434 734c0 -41 -35 -71 -74 -71s-74 30 -74 71c0 42 35 71 74 71s74 -29 74 -71zM130 614h418l-20 -112h-291l-24 -134h265l-20 -109h-264l-26 -146h291l-19 -113h-418z" />
    <glyph glyph-name="Emacron" unicode="&#x112;" horiz-adv-x="516" 
d="M228 669l16 91h243l-16 -91h-243zM130 614h418l-20 -112h-291l-24 -134h265l-20 -109h-264l-26 -146h291l-19 -113h-418z" />
    <glyph glyph-name="Eogonek" unicode="&#x118;" horiz-adv-x="516" 
d="M130 614h418l-20 -112h-291l-24 -134h265l-20 -109h-264l-26 -146h291l-19 -113h-38c-36 -42 -65 -67 -65 -92c0 -10 6 -17 16 -17c12 0 22 5 40 16l-13 -74c-19 -12 -40 -21 -66 -21c-45 0 -69 24 -69 60c0 52 39 88 76 128h-299z" />
    <glyph glyph-name="Gbreve" unicode="&#x11e;" horiz-adv-x="623" 
d="M393 663c-76 0 -131 48 -116 134h88c-6 -33 10 -48 38 -48s50 15 55 48h88c-15 -87 -69 -134 -153 -134zM315 -10c-164 0 -272 113 -272 279c0 185 127 355 318 355c145 0 236 -84 246 -208h-126c-13 56 -54 94 -122 94c-118 0 -186 -110 -186 -240
c0 -97 53 -166 144 -166c74 0 136 50 151 116h-115l18 102h240l-14 -81c-25 -146 -134 -251 -282 -251z" />
    <glyph glyph-name="Gcircumflex" unicode="&#x11c;" horiz-adv-x="623" 
d="M460 796l77 -127h-101l-38 54l-56 -54h-109l123 127h104zM315 -10c-164 0 -272 113 -272 279c0 185 127 355 318 355c145 0 236 -84 246 -208h-126c-13 56 -54 94 -122 94c-118 0 -186 -110 -186 -240c0 -97 53 -166 144 -166c74 0 136 50 151 116h-115l18 102h240
l-14 -81c-25 -146 -134 -251 -282 -251z" />
    <glyph glyph-name="Gcommaaccent" unicode="&#x122;" horiz-adv-x="623" 
d="M201 -225l49 59c-25 8 -43 29 -43 60c0 39 30 67 69 67c38 0 70 -26 70 -71c0 -30 -16 -57 -39 -83l-27 -32h-79zM315 -10c-164 0 -272 113 -272 279c0 185 127 355 318 355c145 0 236 -84 246 -208h-126c-13 56 -54 94 -122 94c-118 0 -186 -110 -186 -240
c0 -97 53 -166 144 -166c74 0 136 50 151 116h-115l18 102h240l-14 -81c-25 -146 -134 -251 -282 -251z" />
    <glyph glyph-name="Gdotaccent" unicode="&#x120;" horiz-adv-x="623" 
d="M475 734c0 -41 -35 -71 -74 -71s-74 30 -74 71c0 42 35 71 74 71s74 -29 74 -71zM315 -10c-164 0 -272 113 -272 279c0 185 127 355 318 355c145 0 236 -84 246 -208h-126c-13 56 -54 94 -122 94c-118 0 -186 -110 -186 -240c0 -97 53 -166 144 -166c74 0 136 50 151 116
h-115l18 102h240l-14 -81c-25 -146 -134 -251 -282 -251z" />
    <glyph glyph-name="Hbar" unicode="&#x126;" horiz-adv-x="683" 
d="M552 614h128l-17 -94h51l-18 -102h-51l-73 -418h-128l38 217h-279l-37 -217h-129l73 418h-50l17 102h51l17 94h129l-17 -94h278zM221 318h278l18 100h-278z" />
    <glyph glyph-name="Hcircumflex" unicode="&#x124;" horiz-adv-x="652" 
d="M537 614h128l-108 -614h-128l45 258h-278l-45 -258h-129l108 614h129l-44 -244h279zM478 796l77 -127h-101l-38 54l-56 -54h-109l123 127h104z" />
    <glyph glyph-name="Ibreve" unicode="&#x12c;" horiz-adv-x="245" 
d="M259 614l-108 -614h-129l108 614h129zM208 663c-76 0 -131 48 -116 134h88c-6 -33 10 -48 38 -48s50 15 55 48h88c-15 -87 -69 -134 -153 -134z" />
    <glyph glyph-name="Idotaccent" unicode="&#x130;" horiz-adv-x="245" 
d="M259 614l-108 -614h-129l108 614h129zM290 734c0 -41 -35 -71 -74 -71s-74 30 -74 71c0 42 35 71 74 71s74 -29 74 -71z" />
    <glyph glyph-name="Imacron" unicode="&#x12a;" horiz-adv-x="245" 
d="M259 614l-108 -614h-129l108 614h129zM83 669l16 91h243l-16 -91h-243z" />
    <glyph glyph-name="Iogonek" unicode="&#x12e;" horiz-adv-x="245" 
d="M259 614l-108 -614c-36 -42 -64 -68 -64 -92c0 -10 5 -17 16 -17c12 0 21 5 39 16l-13 -74c-18 -12 -39 -21 -65 -21c-45 0 -69 24 -69 60c0 51 38 88 74 128h-47l108 614h129z" />
    <glyph glyph-name="Itilde" unicode="&#x128;" horiz-adv-x="245" 
d="M259 614l-108 -614h-129l108 614h129zM300 804h74c-13 -79 -50 -140 -110 -140c-44 0 -64 46 -94 46c-19 0 -31 -16 -36 -42h-74c14 79 50 139 109 139c45 0 66 -45 95 -45c18 0 31 15 36 42z" />
    <glyph glyph-name="IJ" unicode="&#x132;" horiz-adv-x="760" 
d="M259 614l-108 -614h-129l108 614h129zM267 203h130s-1 -6 -1 -10c0 -53 25 -87 82 -87c63 0 95 46 109 123l68 385h128l-69 -395c-26 -143 -111 -229 -239 -229c-131 0 -209 75 -209 189c0 8 1 22 1 24z" />
    <glyph glyph-name="Jcircumflex" unicode="&#x134;" horiz-adv-x="514" 
d="M22 203h130s-1 -6 -1 -10c0 -53 25 -87 82 -87c63 0 95 46 109 123l68 385h128l-69 -395c-26 -143 -111 -229 -239 -229c-131 0 -209 75 -209 189c0 8 1 22 1 24zM554 796l77 -127h-101l-38 54l-56 -54h-109l123 127h104z" />
    <glyph glyph-name="Kcommaaccent" unicode="&#x136;" horiz-adv-x="589" 
d="M158 -225l49 59c-25 8 -43 29 -43 60c0 39 30 67 69 67c38 0 70 -26 70 -71c0 -30 -16 -57 -39 -83l-27 -32h-79zM259 614l-49 -276l279 276h160l-285 -277l184 -337h-146l-142 255l-78 -74l-31 -181h-129l108 614h129z" />
    <glyph glyph-name="Lacute" unicode="&#x139;" horiz-adv-x="507" 
d="M274 669h-126l100 122h139zM22 0l108 614h129l-89 -501h287l-20 -113h-415z" />
    <glyph glyph-name="Lcaron" unicode="&#x13d;" horiz-adv-x="507" 
d="M411 447h-99l76 167h100zM22 0l108 614h129l-89 -501h287l-20 -113h-415z" />
    <glyph glyph-name="Lcommaaccent" unicode="&#x13b;" horiz-adv-x="507" 
d="M136 -225l49 59c-25 8 -43 29 -43 60c0 39 30 67 69 67c38 0 70 -26 70 -71c0 -30 -16 -57 -39 -83l-27 -32h-79zM22 0l108 614h129l-89 -501h287l-20 -113h-415z" />
    <glyph glyph-name="Ldot" unicode="&#x13f;" horiz-adv-x="507" 
d="M22 0l108 614h129l-89 -501h287l-20 -113h-415zM468 315c0 -42 -35 -71 -74 -71s-74 29 -74 71c0 41 35 71 74 71s74 -30 74 -71z" />
    <glyph glyph-name="Nacute" unicode="&#x143;" horiz-adv-x="631" 
d="M454 669h-126l100 122h139zM644 614l-108 -614h-99l-218 421l-73 -421h-124l108 614h118l202 -400l70 400h124z" />
    <glyph glyph-name="Ncaron" unicode="&#x147;" horiz-adv-x="631" 
d="M347 668l-77 127h101l38 -54l56 54h109l-123 -127h-104zM644 614l-108 -614h-99l-218 421l-73 -421h-124l108 614h118l202 -400l70 400h124z" />
    <glyph glyph-name="Ncommaaccent" unicode="&#x145;" horiz-adv-x="631" 
d="M182 -225l49 59c-25 8 -43 29 -43 60c0 39 30 67 69 67c38 0 70 -26 70 -71c0 -30 -16 -57 -39 -83l-27 -32h-79zM644 614l-108 -614h-99l-218 421l-73 -421h-124l108 614h118l202 -400l70 400h124z" />
    <glyph glyph-name="Eng" unicode="&#x14a;" horiz-adv-x="631" 
d="M415 41l-196 380l-73 -421h-124l108 614h118l202 -400l70 400h124l-100 -573c-28 -155 -109 -224 -236 -224c-40 0 -68 11 -92 22l20 113c21 -13 43 -21 73 -21c60 0 90 31 106 110z" />
    <glyph glyph-name="Obreve" unicode="&#x14e;" horiz-adv-x="640" 
d="M400 663c-76 0 -131 48 -116 134h88c-6 -33 10 -48 38 -48s50 15 55 48h88c-15 -87 -69 -134 -153 -134zM311 104c105 0 187 95 187 240c0 94 -53 166 -139 166c-105 0 -186 -95 -186 -240c0 -94 52 -166 138 -166zM309 -10c-163 0 -266 115 -266 279
c0 203 142 355 318 355c163 0 266 -115 266 -279c0 -203 -141 -355 -318 -355z" />
    <glyph glyph-name="Ohungarumlaut" unicode="&#x150;" horiz-adv-x="640" 
d="M311 104c105 0 187 95 187 240c0 94 -53 166 -139 166c-105 0 -186 -95 -186 -240c0 -94 52 -166 138 -166zM309 -10c-163 0 -266 115 -266 279c0 203 142 355 318 355c163 0 266 -115 266 -279c0 -203 -141 -355 -318 -355zM364 669h-106l88 122h108zM518 669h-106
l88 122h108z" />
    <glyph glyph-name="Omacron" unicode="&#x14c;" horiz-adv-x="640" 
d="M275 669l16 91h243l-16 -91h-243zM311 104c105 0 187 95 187 240c0 94 -53 166 -139 166c-105 0 -186 -95 -186 -240c0 -94 52 -166 138 -166zM309 -10c-163 0 -266 115 -266 279c0 203 142 355 318 355c163 0 266 -115 266 -279c0 -203 -141 -355 -318 -355z" />
    <glyph glyph-name="Oslashacute" unicode="&#x1fe;" horiz-adv-x="649" 
d="M46 31l54 61c-34 47 -52 107 -52 177c0 203 141 355 318 355c64 0 120 -18 163 -50l47 53l57 -44l-54 -61c34 -47 53 -108 53 -177c0 -203 -142 -355 -318 -355c-65 0 -120 18 -163 50l-47 -53zM316 102c105 0 188 97 188 242c0 28 -5 55 -14 78l-258 -291
c22 -18 50 -29 84 -29zM176 270c0 -28 4 -55 13 -78l258 290c-22 19 -50 30 -83 30c-105 0 -188 -97 -188 -242zM455 669h-126l100 122h139z" />
    <glyph glyph-name="Racute" unicode="&#x154;" horiz-adv-x="563" 
d="M263 229h-73l-40 -229h-128l108 614h242c123 0 191 -61 191 -170c0 -111 -71 -183 -172 -207l123 -237h-137zM238 505l-30 -171h117c70 0 112 36 112 102c0 41 -26 69 -84 69h-115zM414 669h-126l100 122h139z" />
    <glyph glyph-name="Rcaron" unicode="&#x158;" horiz-adv-x="563" 
d="M263 229h-73l-40 -229h-128l108 614h242c123 0 191 -61 191 -170c0 -111 -71 -183 -172 -207l123 -237h-137zM238 505l-30 -171h117c70 0 112 36 112 102c0 41 -26 69 -84 69h-115zM307 668l-77 127h101l38 -54l56 54h109l-123 -127h-104z" />
    <glyph glyph-name="Rcommaaccent" unicode="&#x156;" horiz-adv-x="563" 
d="M263 229h-73l-40 -229h-128l108 614h242c123 0 191 -61 191 -170c0 -111 -71 -183 -172 -207l123 -237h-137zM238 505l-30 -171h117c70 0 112 36 112 102c0 41 -26 69 -84 69h-115zM150 -225l49 59c-25 8 -43 29 -43 60c0 39 30 67 69 67c38 0 70 -26 70 -71
c0 -30 -16 -57 -39 -83l-27 -32h-79z" />
    <glyph glyph-name="Sacute" unicode="&#x15a;" horiz-adv-x="531" 
d="M533 441h-126c-6 43 -42 78 -104 78c-59 0 -101 -30 -101 -80c0 -29 14 -48 56 -60l105 -31c82 -25 129 -72 129 -149c0 -132 -111 -209 -240 -209c-136 0 -229 67 -239 190h128c10 -57 57 -84 112 -84c65 0 110 29 110 85c0 29 -18 49 -66 63l-99 28
c-72 21 -125 61 -125 147c0 120 99 205 231 205c145 0 222 -76 229 -183zM390 669h-126l100 122h139z" />
    <glyph glyph-name="Scedilla" unicode="&#x15e;" horiz-adv-x="531" 
d="M533 441h-126c-6 43 -42 78 -104 78c-59 0 -101 -30 -101 -80c0 -29 14 -48 56 -60l105 -31c82 -25 129 -72 129 -149c0 -132 -111 -209 -240 -209c-136 0 -229 67 -239 190h128c10 -57 57 -84 112 -84c65 0 110 29 110 85c0 29 -18 49 -66 63l-99 28
c-72 21 -125 61 -125 147c0 120 99 205 231 205c145 0 222 -76 229 -183zM181 -186h-114l95 139h117z" />
    <glyph glyph-name="Scircumflex" unicode="&#x15c;" horiz-adv-x="531" 
d="M533 441h-126c-6 43 -42 78 -104 78c-59 0 -101 -30 -101 -80c0 -29 14 -48 56 -60l105 -31c82 -25 129 -72 129 -149c0 -132 -111 -209 -240 -209c-136 0 -229 67 -239 190h128c10 -57 57 -84 112 -84c65 0 110 29 110 85c0 29 -18 49 -66 63l-99 28
c-72 21 -125 61 -125 147c0 120 99 205 231 205c145 0 222 -76 229 -183zM404 796l77 -127h-101l-38 54l-56 -54h-109l123 127h104z" />
    <glyph glyph-name="Scommaaccent" unicode="&#x218;" horiz-adv-x="531" 
d="M140 -225l49 59c-25 8 -43 29 -43 60c0 39 30 67 69 67c38 0 70 -26 70 -71c0 -30 -16 -57 -39 -83l-27 -32h-79zM533 441h-126c-6 43 -42 78 -104 78c-59 0 -101 -30 -101 -80c0 -29 14 -48 56 -60l105 -31c82 -25 129 -72 129 -149c0 -132 -111 -209 -240 -209
c-136 0 -229 67 -239 190h128c10 -57 57 -84 112 -84c65 0 110 29 110 85c0 29 -18 49 -66 63l-99 28c-72 21 -125 61 -125 147c0 120 99 205 231 205c145 0 222 -76 229 -183z" />
    <glyph glyph-name="Tbar" unicode="&#x166;" horiz-adv-x="575" 
d="M75 502l20 112h524l-20 -112h-198l-25 -140h103l-19 -106h-102l-45 -256h-129l45 256h-101l19 106h101l25 140h-198z" />
    <glyph glyph-name="Tcaron" unicode="&#x164;" horiz-adv-x="575" 
d="M318 668l-77 127h101l38 -54l56 54h109l-123 -127h-104zM75 502l20 112h524l-20 -112h-198l-88 -502h-129l89 502h-198z" />
    <glyph glyph-name="Ubreve" unicode="&#x16c;" horiz-adv-x="610" 
d="M384 663c-76 0 -131 48 -116 134h88c-6 -33 10 -48 38 -48s50 15 55 48h88c-15 -87 -69 -134 -153 -134zM284 -10c-139 0 -232 71 -232 203c0 18 2 38 8 67l62 354h128l-63 -354c-2 -17 -4 -32 -4 -46c0 -70 35 -109 106 -109c85 0 134 50 153 155l62 354h128l-65 -367
c-29 -167 -130 -257 -283 -257z" />
    <glyph glyph-name="Uhungarumlaut" unicode="&#x170;" horiz-adv-x="610" 
d="M284 -10c-139 0 -232 71 -232 203c0 18 2 38 8 67l62 354h128l-63 -354c-2 -17 -4 -32 -4 -46c0 -70 35 -109 106 -109c85 0 134 50 153 155l62 354h128l-65 -367c-29 -167 -130 -257 -283 -257zM353 669h-106l88 122h108zM507 669h-106l88 122h108z" />
    <glyph glyph-name="Umacron" unicode="&#x16a;" horiz-adv-x="610" 
d="M261 669l16 91h243l-16 -91h-243zM284 -10c-139 0 -232 71 -232 203c0 18 2 38 8 67l62 354h128l-63 -354c-2 -17 -4 -32 -4 -46c0 -70 35 -109 106 -109c85 0 134 50 153 155l62 354h128l-65 -367c-29 -167 -130 -257 -283 -257z" />
    <glyph glyph-name="Uogonek" unicode="&#x172;" horiz-adv-x="610" 
d="M284 -10c-139 0 -232 71 -232 203c0 18 2 38 8 67l62 354h128l-63 -354c-2 -17 -4 -32 -4 -46c0 -70 35 -109 106 -109c85 0 134 50 153 155l62 354h128l-65 -367c-19 -108 -68 -174 -134 -223c-62 -47 -95 -90 -95 -116c0 -10 6 -17 16 -17c12 0 22 5 40 16l-13 -74
c-19 -12 -40 -21 -66 -21c-45 0 -69 24 -69 60c0 47 33 83 66 119c-8 0 -20 -1 -28 -1z" />
    <glyph glyph-name="Uring" unicode="&#x16e;" horiz-adv-x="610" 
d="M284 -10c-139 0 -232 71 -232 203c0 18 2 38 8 67l62 354h128l-63 -354c-2 -17 -4 -32 -4 -46c0 -70 35 -109 106 -109c85 0 134 50 153 155l62 354h128l-65 -367c-29 -167 -130 -257 -283 -257zM393 704c21 0 41 16 41 41c0 21 -16 38 -37 38c-22 0 -42 -17 -42 -42
c0 -21 17 -37 38 -37zM390 646c-54 0 -95 40 -95 93c0 55 45 101 104 101c55 0 95 -40 95 -93c0 -55 -45 -101 -104 -101z" />
    <glyph glyph-name="Utilde" unicode="&#x168;" horiz-adv-x="610" 
d="M478 804h74c-13 -79 -50 -140 -110 -140c-44 0 -64 46 -94 46c-19 0 -31 -16 -36 -42h-74c14 79 50 139 109 139c45 0 66 -45 95 -45c18 0 31 15 36 42zM284 -10c-139 0 -232 71 -232 203c0 18 2 38 8 67l62 354h128l-63 -354c-2 -17 -4 -32 -4 -46
c0 -70 35 -109 106 -109c85 0 134 50 153 155l62 354h128l-65 -367c-29 -167 -130 -257 -283 -257z" />
    <glyph glyph-name="Wacute" unicode="&#x1e82;" horiz-adv-x="798" 
d="M536 669h-126l100 122h139zM420 614h101l25 -413l181 413h129l-281 -614h-118l-28 405l-188 -405h-117l-37 614h125l19 -413z" />
    <glyph glyph-name="Wcircumflex" unicode="&#x174;" horiz-adv-x="798" 
d="M420 614h101l25 -413l181 413h129l-281 -614h-118l-28 405l-188 -405h-117l-37 614h125l19 -413zM550 796l77 -127h-101l-38 54l-56 -54h-109l123 127h104z" />
    <glyph glyph-name="Wgrave" unicode="&#x1e80;" horiz-adv-x="798" 
d="M535 669h-114l-71 122h128zM420 614h101l25 -413l181 413h129l-281 -614h-118l-28 405l-188 -405h-117l-37 614h125l19 -413z" />
    <glyph glyph-name="Wdieresis" unicode="&#x1e84;" horiz-adv-x="798" 
d="M340 730c0 39 29 68 67 68c37 0 67 -29 67 -68c0 -36 -30 -66 -67 -66c-38 0 -67 30 -67 66zM505 730c0 39 30 68 67 68s68 -29 68 -68c0 -36 -31 -66 -68 -66s-67 30 -67 66zM420 614h101l25 -413l181 413h129l-281 -614h-118l-28 405l-188 -405h-117l-37 614h125
l19 -413z" />
    <glyph glyph-name="Ycircumflex" unicode="&#x176;" horiz-adv-x="593" 
d="M319 354l194 260h141l-290 -381l-41 -233h-127l40 233l-153 381h134zM447 796l77 -127h-101l-38 54l-56 -54h-109l123 127h104z" />
    <glyph glyph-name="Ygrave" unicode="&#x1ef2;" horiz-adv-x="593" 
d="M319 354l194 260h141l-290 -381l-41 -233h-127l40 233l-153 381h134zM431 669h-114l-71 122h128z" />
    <glyph glyph-name="Zacute" unicode="&#x179;" horiz-adv-x="554" 
d="M499 113l-20 -113h-474l16 93l378 409h-299l20 112h465l-17 -92l-375 -409h306zM412 669h-126l100 122h139z" />
    <glyph glyph-name="Zdotaccent" unicode="&#x17b;" horiz-adv-x="554" 
d="M440 734c0 -41 -35 -71 -74 -71s-74 30 -74 71c0 42 35 71 74 71s74 -29 74 -71zM499 113l-20 -113h-474l16 93l378 409h-299l20 112h465l-17 -92l-375 -409h306z" />
    <glyph glyph-name="abreve" unicode="&#x103;" horiz-adv-x="473" 
d="M436 285l-50 -285h-120l4 24c-18 -15 -57 -32 -105 -32c-83 0 -151 47 -151 129c0 99 93 159 195 159c44 0 84 -12 102 -26l6 32c1 5 2 12 2 18c0 30 -18 52 -59 52c-37 0 -61 -16 -76 -42h-118c25 82 105 143 209 143c102 0 164 -56 164 -140c0 -10 -1 -21 -3 -32z
M287 121l6 33c-7 24 -37 39 -73 39c-40 0 -89 -19 -89 -64c0 -32 35 -46 71 -46c35 0 70 14 85 38zM299 492c-76 0 -131 50 -114 142h88c-6 -35 4 -58 34 -58c31 0 50 23 56 58h88c-17 -93 -73 -142 -152 -142z" />
    <glyph glyph-name="amacron" unicode="&#x101;" horiz-adv-x="473" 
d="M436 285l-50 -285h-120l4 24c-18 -15 -57 -32 -105 -32c-83 0 -151 47 -151 129c0 99 93 159 195 159c44 0 84 -12 102 -26l6 32c1 5 2 12 2 18c0 30 -18 52 -59 52c-37 0 -61 -16 -76 -42h-118c25 82 105 143 209 143c102 0 164 -56 164 -140c0 -10 -1 -21 -3 -32z
M287 121l6 33c-7 24 -37 39 -73 39c-40 0 -89 -19 -89 -64c0 -32 35 -46 71 -46c35 0 70 14 85 38zM180 516l16 91h237l-16 -91h-237z" />
    <glyph glyph-name="aogonek" unicode="&#x105;" horiz-adv-x="473" 
d="M287 121l6 33c-7 24 -37 39 -73 39c-40 0 -89 -19 -89 -64c0 -32 35 -46 71 -46c35 0 70 14 85 38zM266 0l4 24c-18 -15 -57 -32 -105 -32c-83 0 -151 47 -151 129c0 99 93 159 195 159c44 0 84 -12 102 -26l6 32c1 5 2 12 2 18c0 30 -18 52 -59 52
c-37 0 -61 -16 -76 -42h-118c25 82 105 143 209 143c102 0 164 -56 164 -140c0 -10 -1 -21 -3 -32l-50 -285c-35 -42 -64 -68 -64 -92c0 -10 6 -17 17 -17c12 0 21 5 39 16l-13 -74c-19 -12 -40 -21 -66 -21c-45 0 -69 24 -69 60c0 51 38 88 74 128h-38z" />
    <glyph glyph-name="aringacute" unicode="&#x1fb;" horiz-adv-x="473" 
d="M308 525c21 0 41 12 41 33c0 17 -17 28 -38 28s-40 -11 -40 -32c0 -17 16 -29 37 -29zM306 475c-55 0 -96 33 -96 78s46 84 103 84c55 0 96 -34 96 -78c0 -45 -46 -84 -103 -84zM388 655h-119l77 94h132zM436 285l-50 -285h-120l4 24c-18 -15 -57 -32 -105 -32
c-83 0 -151 47 -151 129c0 99 93 159 195 159c44 0 84 -12 102 -26l6 32c1 5 2 12 2 18c0 30 -18 52 -59 52c-37 0 -61 -16 -76 -42h-118c25 82 105 143 209 143c102 0 164 -56 164 -140c0 -10 -1 -21 -3 -32zM287 121l6 33c-7 24 -37 39 -73 39c-40 0 -89 -19 -89 -64
c0 -32 35 -46 71 -46c35 0 70 14 85 38z" />
    <glyph glyph-name="aeacute" unicode="&#x1fd;" horiz-adv-x="738" 
d="M480 508h-115l105 142h124zM580 144h121c-27 -94 -104 -154 -214 -154c-68 0 -121 23 -152 67c-44 -44 -107 -66 -172 -66c-88 0 -149 47 -149 126c0 99 94 156 203 156h96c3 17 3 24 3 30c0 31 -15 54 -59 54c-37 0 -62 -17 -77 -43h-118c27 81 107 143 207 143
c63 0 103 -19 129 -59c30 33 85 59 140 59c112 0 179 -70 179 -183c0 -21 -5 -54 -10 -80h-298v-9c1 -61 31 -95 85 -95c40 0 71 18 86 54zM288 136l11 58h-81c-42 0 -87 -15 -87 -63c0 -31 28 -46 63 -46c41 0 75 19 94 51zM532 356c-54 0 -89 -36 -106 -83h174
c0 4 1 9 1 13c0 40 -26 70 -69 70z" />
    <glyph glyph-name="cacute" unicode="&#x107;" horiz-adv-x="459" 
d="M341 508h-115l105 142h124zM307 151h121c-24 -100 -99 -161 -210 -161c-118 0 -192 82 -192 200c0 139 95 267 241 267c114 0 176 -65 180 -161h-122c-3 33 -24 55 -62 55c-77 0 -113 -83 -113 -159c0 -59 28 -96 77 -96c40 0 67 21 80 55z" />
    <glyph glyph-name="ccaron" unicode="&#x10d;" horiz-adv-x="459" 
d="M239 502l-70 145h95l37 -69l61 69h101l-120 -145h-104zM307 151h121c-24 -100 -99 -161 -210 -161c-118 0 -192 82 -192 200c0 139 95 267 241 267c114 0 176 -65 180 -161h-122c-3 33 -24 55 -62 55c-77 0 -113 -83 -113 -159c0 -59 28 -96 77 -96c40 0 67 21 80 55z
" />
    <glyph glyph-name="ccircumflex" unicode="&#x109;" horiz-adv-x="459" 
d="M362 647l70 -145h-95l-37 69l-61 -69h-101l120 145h104zM307 151h121c-24 -100 -99 -161 -210 -161c-118 0 -192 82 -192 200c0 139 95 267 241 267c114 0 176 -65 180 -161h-122c-3 33 -24 55 -62 55c-77 0 -113 -83 -113 -159c0 -59 28 -96 77 -96c40 0 67 21 80 55z
" />
    <glyph glyph-name="cdotaccent" unicode="&#x10b;" horiz-adv-x="459" 
d="M307 151h121c-24 -100 -99 -161 -210 -161c-118 0 -192 82 -192 200c0 139 95 267 241 267c114 0 176 -65 180 -161h-122c-3 33 -24 55 -62 55c-77 0 -113 -83 -113 -159c0 -59 28 -96 77 -96c40 0 67 21 80 55zM376 579c0 -42 -35 -71 -74 -71s-74 29 -74 71
c0 41 35 71 74 71s74 -30 74 -71z" />
    <glyph glyph-name="dcaron" unicode="&#x10f;" horiz-adv-x="522" 
d="M651 483h-99l76 167h100zM375 409l42 241h124l-114 -650h-124l8 42c-25 -28 -69 -52 -118 -52c-111 0 -167 85 -167 194c0 144 99 273 238 273c54 0 95 -23 111 -48zM331 156l25 141c-10 30 -39 52 -80 52c-76 0 -125 -77 -125 -158c0 -53 29 -93 82 -93
c45 0 77 27 98 58z" />
    <glyph glyph-name="dcroat" unicode="&#x111;" horiz-adv-x="522" 
d="M297 497l15 84h93l12 69h124l-12 -69h55l-15 -84h-55l-87 -497h-124l8 42c-25 -28 -69 -52 -118 -52c-111 0 -167 85 -167 194c0 144 99 273 238 273c54 0 95 -23 111 -48l15 88h-93zM331 156l25 141c-10 30 -39 52 -80 52c-76 0 -125 -77 -125 -158c0 -53 29 -93 82 -93
c45 0 77 27 98 58z" />
    <glyph glyph-name="ebreve" unicode="&#x115;" horiz-adv-x="474" 
d="M317 146h120c-27 -95 -103 -156 -214 -156c-123 0 -197 80 -197 200c0 135 93 267 245 267c115 0 181 -70 181 -183c0 -21 -3 -50 -9 -77h-298v-8c0 -62 29 -99 86 -99c39 0 70 19 86 56zM293 492c-76 0 -131 50 -114 142h88c-6 -35 4 -58 34 -58c31 0 50 23 56 58h88
c-17 -93 -73 -142 -152 -142zM266 356c-54 0 -89 -37 -107 -84h175c1 5 1 8 1 12c0 41 -26 72 -69 72z" />
    <glyph glyph-name="ecaron" unicode="&#x11b;" horiz-adv-x="474" 
d="M317 146h120c-27 -95 -103 -156 -214 -156c-123 0 -197 80 -197 200c0 135 93 267 245 267c115 0 181 -70 181 -183c0 -21 -3 -50 -9 -77h-298v-8c0 -62 29 -99 86 -99c39 0 70 19 86 56zM240 502l-70 145h95l37 -69l61 69h101l-120 -145h-104zM266 356
c-54 0 -89 -37 -107 -84h175c1 5 1 8 1 12c0 41 -26 72 -69 72z" />
    <glyph glyph-name="edotaccent" unicode="&#x117;" horiz-adv-x="474" 
d="M317 146h120c-27 -95 -103 -156 -214 -156c-123 0 -197 80 -197 200c0 135 93 267 245 267c115 0 181 -70 181 -183c0 -21 -3 -50 -9 -77h-298v-8c0 -62 29 -99 86 -99c39 0 70 19 86 56zM378 579c0 -42 -35 -71 -74 -71s-74 29 -74 71c0 41 35 71 74 71s74 -30 74 -71z
M266 356c-54 0 -89 -37 -107 -84h175c1 5 1 8 1 12c0 41 -26 72 -69 72z" />
    <glyph glyph-name="emacron" unicode="&#x113;" horiz-adv-x="474" 
d="M317 146h120c-27 -95 -103 -156 -214 -156c-123 0 -197 80 -197 200c0 135 93 267 245 267c115 0 181 -70 181 -183c0 -21 -3 -50 -9 -77h-298v-8c0 -62 29 -99 86 -99c39 0 70 19 86 56zM174 516l16 91h237l-16 -91h-237zM266 356c-54 0 -89 -37 -107 -84h175
c1 5 1 8 1 12c0 41 -26 72 -69 72z" />
    <glyph glyph-name="eogonek" unicode="&#x119;" horiz-adv-x="474" 
d="M317 146h120c-14 -46 -39 -79 -67 -108c-68 -73 -93 -104 -93 -130c0 -10 6 -17 16 -17c12 0 22 5 40 16l-13 -74c-19 -12 -40 -21 -66 -21c-45 0 -69 24 -69 60c0 47 33 83 66 120c-8 -1 -19 -2 -28 -2c-123 0 -197 80 -197 200c0 135 93 267 245 267
c115 0 181 -70 181 -183c0 -21 -3 -50 -9 -77h-298v-8c0 -62 29 -99 86 -99c39 0 70 18 86 56zM266 356c-54 0 -89 -36 -107 -84h175c1 5 1 8 1 12c0 41 -26 72 -69 72z" />
    <glyph glyph-name="gbreve" unicode="&#x11f;" 
d="M309 31l5 30c-25 -29 -67 -51 -116 -51c-112 0 -170 84 -170 189c0 139 98 258 236 258c55 0 95 -23 111 -47l7 37h124l-72 -407c-24 -140 -111 -215 -243 -215c-116 0 -193 63 -194 159h120c3 -42 33 -63 78 -63c68 0 101 41 114 110zM333 169l24 135
c-8 28 -40 49 -81 49c-76 0 -123 -71 -123 -149c0 -53 29 -90 82 -90c45 0 78 26 98 55zM323 492c-76 0 -131 50 -114 142h88c-6 -35 4 -58 34 -58c31 0 50 23 56 58h88c-17 -93 -73 -142 -152 -142z" />
    <glyph glyph-name="gcircumflex" unicode="&#x11d;" 
d="M393 647l70 -145h-95l-37 69l-61 -69h-101l120 145h104zM309 31l5 30c-25 -29 -67 -51 -116 -51c-112 0 -170 84 -170 189c0 139 98 258 236 258c55 0 95 -23 111 -47l7 37h124l-72 -407c-24 -140 -111 -215 -243 -215c-116 0 -193 63 -194 159h120c3 -42 33 -63 78 -63
c68 0 101 41 114 110zM333 169l24 135c-8 28 -40 49 -81 49c-76 0 -123 -71 -123 -149c0 -53 29 -90 82 -90c45 0 78 26 98 55z" />
    <glyph glyph-name="gcommaaccent" unicode="&#x123;" 
d="M412 696l-54 -64c25 -8 44 -30 44 -61c0 -39 -31 -66 -70 -66c-38 0 -70 26 -70 71c0 29 16 57 39 82l32 38h79zM309 31l5 30c-25 -29 -67 -51 -116 -51c-112 0 -170 84 -170 189c0 139 98 258 236 258c55 0 95 -23 111 -47l7 37h124l-72 -407
c-24 -140 -111 -215 -243 -215c-116 0 -193 63 -194 159h120c3 -42 33 -63 78 -63c68 0 101 41 114 110zM333 169l24 135c-8 28 -40 49 -81 49c-76 0 -123 -71 -123 -149c0 -53 29 -90 82 -90c45 0 78 26 98 55z" />
    <glyph glyph-name="gdotaccent" unicode="&#x121;" 
d="M407 579c0 -42 -35 -71 -74 -71s-74 29 -74 71c0 41 35 71 74 71s74 -30 74 -71zM309 31l5 30c-25 -29 -67 -51 -116 -51c-112 0 -170 84 -170 189c0 139 98 258 236 258c55 0 95 -23 111 -47l7 37h124l-72 -407c-24 -140 -111 -215 -243 -215c-116 0 -193 63 -194 159
h120c3 -42 33 -63 78 -63c68 0 101 41 114 110zM333 169l24 135c-8 28 -40 49 -81 49c-76 0 -123 -71 -123 -149c0 -53 29 -90 82 -90c45 0 78 26 98 55z" />
    <glyph glyph-name="hbar" unicode="&#x127;" horiz-adv-x="505" 
d="M49 497l14 84h55l12 69h124l-12 -69h93l-15 -84h-93l-16 -92c27 28 71 52 128 52c85 0 133 -55 133 -132c0 -11 -1 -23 -3 -35l-50 -290h-125l46 266c2 9 3 16 3 22c0 35 -19 57 -61 57c-38 0 -75 -25 -92 -62l-50 -283h-124l87 497h-54z" />
    <glyph glyph-name="hcircumflex" unicode="&#x125;" horiz-adv-x="505" 
d="M339 457c85 0 133 -55 133 -132c0 -11 -1 -23 -3 -35l-50 -290h-125l46 266c2 9 3 16 3 22c0 35 -19 57 -61 57c-38 0 -75 -25 -92 -62l-50 -283h-124l114 650h124l-43 -245c27 28 71 52 128 52zM376 803l77 -127h-101l-38 54l-56 -54h-109l123 127h104z" />
    <glyph glyph-name="ibreve" unicode="&#x12d;" horiz-adv-x="232" 
d="M168 492c-73 0 -119 50 -102 142h86c-7 -35 -2 -58 26 -58s41 23 47 58h87c-16 -93 -71 -142 -144 -142zM219 447l-79 -447h-124l79 447h124z" />
    <glyph glyph-name="imacron" unicode="&#x12b;" horiz-adv-x="232" 
d="M60 516l17 91h217l-16 -91h-218zM219 447l-79 -447h-124l79 447h124z" />
    <glyph glyph-name="iogonek" unicode="&#x12f;" horiz-adv-x="232" 
d="M253 577c0 -43 -35 -72 -74 -72c-40 0 -73 29 -73 69c0 43 35 73 75 73c39 0 72 -30 72 -70zM16 0l79 447h124l-79 -447c-35 -42 -64 -68 -64 -92c0 -10 6 -17 17 -17c12 0 21 5 39 16l-13 -74c-18 -12 -40 -21 -65 -21c-45 0 -69 24 -69 60c0 51 37 88 74 128h-43z" />
    <glyph glyph-name="itilde" unicode="&#x129;" horiz-adv-x="232" 
d="M248 643h73c-14 -79 -49 -139 -103 -139c-40 0 -50 43 -76 43c-17 0 -27 -13 -32 -39h-73c14 79 48 139 102 139c40 0 51 -43 76 -43c16 0 28 13 33 39zM219 447l-79 -447h-124l79 447h124z" />
    <glyph glyph-name="ij" unicode="&#x133;" horiz-adv-x="463" 
d="M219 447l-79 -447h-124l79 447h124zM253 577c0 -43 -35 -72 -74 -72c-40 0 -73 29 -73 69c0 43 35 73 75 73c39 0 72 -30 72 -70zM133 -161l18 100c10 -7 24 -13 42 -13c30 0 44 17 52 57l82 464h124l-83 -465c-17 -101 -73 -157 -166 -157c-29 0 -54 6 -69 14zM485 577
c0 -43 -35 -72 -74 -72c-40 0 -73 29 -73 69c0 43 35 73 75 73c39 0 72 -30 72 -70z" />
    <glyph glyph-name="jcircumflex" unicode="&#x135;" horiz-adv-x="232" 
d="M242 647l56 -145h-94l-25 67l-49 -67h-99l107 145h104zM-99 -161l18 100c10 -7 24 -13 42 -13c30 0 44 17 52 57l82 464h124l-83 -465c-17 -101 -73 -157 -166 -157c-29 0 -54 6 -69 14z" />
    <glyph glyph-name="kcommaaccent" unicode="&#x137;" horiz-adv-x="488" 
d="M116 -225l49 59c-25 8 -43 29 -43 60c0 39 30 67 69 67c38 0 70 -26 70 -71c0 -30 -16 -57 -39 -83l-27 -32h-79zM318 0l-108 182l-45 -41l-25 -141h-124l114 650h124l-65 -371l179 168h159l-220 -195l147 -252h-136z" />
    <glyph glyph-name="kgreenlandic" unicode="&#x138;" horiz-adv-x="496" 
d="M318 0l-108 182l-45 -41l-25 -141h-124l78 447h124l-29 -168l179 168h159l-220 -195l147 -252h-136z" />
    <glyph glyph-name="lacute" unicode="&#x13a;" horiz-adv-x="232" 
d="M261 679h-126l100 122h139zM254 650l-114 -650h-124l114 650h124z" />
    <glyph glyph-name="lcaron" unicode="&#x13e;" horiz-adv-x="232" 
d="M363 483h-99l76 167h100zM254 650l-114 -650h-124l114 650h124z" />
    <glyph glyph-name="lcommaaccent" unicode="&#x13c;" horiz-adv-x="232" 
d="M-19 -225l49 59c-25 8 -43 29 -43 60c0 39 30 67 69 67c38 0 70 -26 70 -71c0 -30 -16 -57 -39 -83l-27 -32h-79zM254 650l-114 -650h-124l114 650h124z" />
    <glyph glyph-name="ldot" unicode="&#x140;" horiz-adv-x="403" 
d="M254 650l-114 -650h-124l114 650h124zM405 325c0 -42 -35 -71 -74 -71s-74 29 -74 71c0 41 35 71 74 71s74 -30 74 -71z" />
    <glyph glyph-name="nacute" unicode="&#x144;" horiz-adv-x="505" 
d="M361 508h-115l105 142h124zM16 0l79 447h124l-8 -42c27 28 71 52 128 52c85 0 133 -55 133 -132c0 -11 -1 -23 -3 -35l-50 -290h-125l46 266c2 9 3 16 3 22c0 35 -19 57 -61 57c-38 0 -75 -25 -92 -62l-50 -283h-124z" />
    <glyph glyph-name="ncaron" unicode="&#x148;" horiz-adv-x="505" 
d="M256 502l-70 145h95l37 -69l61 69h101l-120 -145h-104zM16 0l79 447h124l-8 -42c27 28 71 52 128 52c85 0 133 -55 133 -132c0 -11 -1 -23 -3 -35l-50 -290h-125l46 266c2 9 3 16 3 22c0 35 -19 57 -61 57c-38 0 -75 -25 -92 -62l-50 -283h-124z" />
    <glyph glyph-name="ncommaaccent" unicode="&#x146;" horiz-adv-x="505" 
d="M122 -225l49 59c-25 8 -43 29 -43 60c0 39 30 67 69 67c38 0 70 -26 70 -71c0 -30 -16 -57 -39 -83l-27 -32h-79zM16 0l79 447h124l-8 -42c27 28 71 52 128 52c85 0 133 -55 133 -132c0 -11 -1 -23 -3 -35l-50 -290h-125l46 266c2 9 3 16 3 22c0 35 -19 57 -61 57
c-38 0 -75 -25 -92 -62l-50 -283h-124z" />
    <glyph glyph-name="eng" unicode="&#x14b;" horiz-adv-x="505" 
d="M179 -161l18 100c10 -7 25 -13 42 -13c30 0 45 17 52 57l49 283c2 9 3 16 3 22c0 35 -19 57 -61 57c-38 0 -75 -25 -92 -62l-50 -283h-124l79 447h124l-8 -42c27 28 71 52 128 52c85 0 133 -55 133 -132c0 -11 -1 -23 -3 -35l-54 -308c-17 -101 -73 -157 -167 -157
c-29 0 -53 6 -69 14z" />
    <glyph glyph-name="obreve" unicode="&#x14f;" horiz-adv-x="490" 
d="M227 95c67 0 114 70 114 163c0 55 -28 94 -78 94c-67 0 -114 -70 -114 -163c0 -55 28 -94 78 -94zM225 -10c-124 0 -199 80 -199 200c0 155 107 267 239 267c124 0 199 -80 199 -200c0 -155 -107 -267 -239 -267zM294 492c-76 0 -131 50 -114 142h88c-6 -35 4 -58 34 -58
c31 0 50 23 56 58h88c-17 -93 -73 -142 -152 -142z" />
    <glyph glyph-name="ohungarumlaut" unicode="&#x151;" horiz-adv-x="490" 
d="M262 508h-99l92 142h100zM408 508h-100l92 142h101zM227 95c67 0 114 70 114 163c0 55 -28 94 -78 94c-67 0 -114 -70 -114 -163c0 -55 28 -94 78 -94zM225 -10c-124 0 -199 80 -199 200c0 155 107 267 239 267c124 0 199 -80 199 -200c0 -155 -107 -267 -239 -267z" />
    <glyph glyph-name="omacron" unicode="&#x14d;" horiz-adv-x="490" 
d="M175 516l16 91h237l-16 -91h-237zM227 95c67 0 114 70 114 163c0 55 -28 94 -78 94c-67 0 -114 -70 -114 -163c0 -55 28 -94 78 -94zM225 -10c-124 0 -199 80 -199 200c0 155 107 267 239 267c124 0 199 -80 199 -200c0 -155 -107 -267 -239 -267z" />
    <glyph glyph-name="oslashacute" unicode="&#x1ff;" horiz-adv-x="500" 
d="M23 6l47 54c-25 34 -39 78 -39 130c0 155 107 267 239 267c46 0 86 -11 117 -32l44 50l46 -36l-47 -54c25 -33 39 -77 39 -128c0 -155 -107 -267 -239 -267c-46 0 -85 10 -116 30l-44 -50zM345 508h-115l105 142h124zM148 187c0 -12 1 -23 4 -33l163 188
c-12 9 -28 14 -47 14c-68 0 -120 -75 -120 -169zM232 91c68 0 120 75 120 169c0 11 -1 21 -4 31l-162 -188c12 -8 28 -12 46 -12z" />
    <glyph glyph-name="racute" unicode="&#x155;" horiz-adv-x="351" 
d="M293 508h-115l105 142h124zM366 449l-22 -124c-15 10 -36 15 -59 15c-41 0 -80 -22 -96 -63l-49 -277h-124l79 447h124l-8 -44c23 32 66 54 109 54c22 0 40 -4 46 -8z" />
    <glyph glyph-name="rcaron" unicode="&#x159;" horiz-adv-x="351" 
d="M190 502l-70 145h95l37 -69l61 69h101l-120 -145h-104zM366 449l-22 -124c-15 10 -36 15 -59 15c-41 0 -80 -22 -96 -63l-49 -277h-124l79 447h124l-8 -44c23 32 66 54 109 54c22 0 40 -4 46 -8z" />
    <glyph glyph-name="rcommaaccent" unicode="&#x157;" horiz-adv-x="351" 
d="M-17 -225l49 59c-25 8 -43 29 -43 60c0 39 30 67 69 67c38 0 70 -26 70 -71c0 -30 -16 -57 -39 -83l-27 -32h-79zM366 449l-22 -124c-15 10 -36 15 -59 15c-41 0 -80 -22 -96 -63l-49 -277h-124l79 447h124l-8 -44c23 32 66 54 109 54c22 0 40 -4 46 -8z" />
    <glyph glyph-name="sacute" unicode="&#x15b;" horiz-adv-x="437" 
d="M318 508h-115l105 142h124zM9 135h118c6 -37 38 -51 73 -51c39 0 67 14 67 44c0 20 -9 29 -39 37l-76 21c-62 17 -102 51 -102 117c0 93 85 154 186 154c120 0 175 -60 181 -140h-115c-5 26 -27 46 -66 46c-36 0 -63 -17 -63 -44c0 -16 10 -26 31 -33l82 -24
c72 -21 104 -61 104 -117c0 -102 -89 -155 -192 -155c-117 0 -184 60 -189 145z" />
    <glyph glyph-name="scedilla" unicode="&#x15f;" horiz-adv-x="437" 
d="M9 135h118c6 -37 38 -51 73 -51c39 0 67 14 67 44c0 20 -9 29 -39 37l-76 21c-62 17 -102 51 -102 117c0 93 85 154 186 154c120 0 175 -60 181 -140h-115c-5 26 -27 46 -66 46c-36 0 -63 -17 -63 -44c0 -16 10 -26 31 -33l82 -24c72 -21 104 -61 104 -117
c0 -102 -89 -155 -192 -155c-117 0 -184 60 -189 145zM138 -186h-114l95 139h117z" />
    <glyph glyph-name="scircumflex" unicode="&#x15d;" horiz-adv-x="437" 
d="M340 647l70 -145h-95l-37 69l-61 -69h-101l120 145h104zM9 135h118c6 -37 38 -51 73 -51c39 0 67 14 67 44c0 20 -9 29 -39 37l-76 21c-62 17 -102 51 -102 117c0 93 85 154 186 154c120 0 175 -60 181 -140h-115c-5 26 -27 46 -66 46c-36 0 -63 -17 -63 -44
c0 -16 10 -26 31 -33l82 -24c72 -21 104 -61 104 -117c0 -102 -89 -155 -192 -155c-117 0 -184 60 -189 145z" />
    <glyph glyph-name="scommaaccent" unicode="&#x219;" horiz-adv-x="437" 
d="M80 -225l49 59c-25 8 -43 29 -43 60c0 39 30 67 69 67c38 0 70 -26 70 -71c0 -30 -16 -57 -39 -83l-27 -32h-79zM9 135h118c6 -37 38 -51 73 -51c39 0 67 14 67 44c0 20 -9 29 -39 37l-76 21c-62 17 -102 51 -102 117c0 93 85 154 186 154c120 0 175 -60 181 -140h-115
c-5 26 -27 46 -66 46c-36 0 -63 -17 -63 -44c0 -16 10 -26 31 -33l82 -24c72 -21 104 -61 104 -117c0 -102 -89 -155 -192 -155c-117 0 -184 60 -189 145z" />
    <glyph glyph-name="tbar" unicode="&#x167;" horiz-adv-x="343" 
d="M23 199l15 86h56l14 70h-70l16 92h70l22 121h123l-22 -121h96l-16 -92h-96l-14 -70h79l-15 -86h-80l-8 -42c-1 -7 -2 -12 -2 -20c0 -25 16 -36 44 -36c18 0 41 6 57 14l-20 -110c-19 -9 -50 -14 -82 -14c-79 0 -128 34 -128 108c0 11 2 23 4 36l12 64h-55z" />
    <glyph glyph-name="tcaron" unicode="&#x165;" horiz-adv-x="343" 
d="M393 490h-99l76 167h100zM66 135l40 212h-70l18 100h70l22 121h123l-22 -121h96l-17 -100h-97l-36 -191c-1 -7 -2 -12 -2 -19c0 -26 16 -37 43 -37c19 0 42 6 57 15l-19 -110c-19 -9 -50 -14 -82 -14c-79 0 -128 34 -128 108c0 11 2 23 4 36z" />
    <glyph glyph-name="ubreve" unicode="&#x16d;" horiz-adv-x="501" 
d="M487 447l-78 -447h-124l7 41c-27 -27 -71 -51 -127 -51c-85 0 -132 54 -132 131c0 11 1 23 3 36l51 290h124l-46 -269c-2 -9 -3 -17 -3 -26c0 -33 16 -55 58 -55c39 0 77 28 93 65l50 285h124zM301 492c-76 0 -131 50 -114 142h88c-6 -35 4 -58 34 -58c31 0 50 23 56 58
h88c-17 -93 -73 -142 -152 -142z" />
    <glyph glyph-name="uhungarumlaut" unicode="&#x171;" horiz-adv-x="501" 
d="M487 447l-78 -447h-124l7 41c-27 -27 -71 -51 -127 -51c-85 0 -132 54 -132 131c0 11 1 23 3 36l51 290h124l-46 -269c-2 -9 -3 -17 -3 -26c0 -33 16 -55 58 -55c39 0 77 28 93 65l50 285h124zM269 508h-99l92 142h100zM415 508h-100l92 142h101z" />
    <glyph glyph-name="umacron" unicode="&#x16b;" horiz-adv-x="501" 
d="M487 447l-78 -447h-124l7 41c-27 -27 -71 -51 -127 -51c-85 0 -132 54 -132 131c0 11 1 23 3 36l51 290h124l-46 -269c-2 -9 -3 -17 -3 -26c0 -33 16 -55 58 -55c39 0 77 28 93 65l50 285h124zM182 516l16 91h237l-16 -91h-237z" />
    <glyph glyph-name="uogonek" unicode="&#x173;" horiz-adv-x="501" 
d="M285 0l7 41c-27 -27 -71 -51 -127 -51c-85 0 -132 54 -132 131c0 11 1 23 3 36l51 290h124l-46 -269c-2 -9 -3 -17 -3 -26c0 -33 16 -55 58 -55c39 0 77 28 93 65l50 285h124l-78 -447c-36 -42 -64 -68 -64 -92c0 -10 5 -17 16 -17c12 0 21 5 39 16l-13 -74
c-18 -12 -39 -21 -65 -21c-45 0 -69 24 -69 60c0 51 38 88 74 128h-42z" />
    <glyph glyph-name="uring" unicode="&#x16f;" horiz-adv-x="501" 
d="M310 545c22 0 41 16 41 41c0 21 -16 38 -37 38c-22 0 -41 -17 -41 -42c0 -21 16 -37 37 -37zM308 487c-55 0 -95 40 -95 93c0 55 45 101 103 101c55 0 95 -40 95 -93c0 -54 -45 -101 -103 -101zM487 447l-78 -447h-124l7 41c-27 -27 -71 -51 -127 -51
c-85 0 -132 54 -132 131c0 11 1 23 3 36l51 290h124l-46 -269c-2 -9 -3 -17 -3 -26c0 -33 16 -55 58 -55c39 0 77 28 93 65l50 285h124z" />
    <glyph glyph-name="utilde" unicode="&#x169;" horiz-adv-x="501" 
d="M487 447l-78 -447h-124l7 41c-27 -27 -71 -51 -127 -51c-85 0 -132 54 -132 131c0 11 1 23 3 36l51 290h124l-46 -269c-2 -9 -3 -17 -3 -26c0 -33 16 -55 58 -55c39 0 77 28 93 65l50 285h124zM392 643h73c-13 -79 -49 -139 -109 -139c-44 0 -59 46 -89 46
c-19 0 -31 -16 -37 -42h-73c14 79 50 139 109 139c45 0 60 -46 89 -46c19 0 32 16 37 42z" />
    <glyph glyph-name="wacute" unicode="&#x1e83;" horiz-adv-x="668" 
d="M433 508h-115l105 142h124zM420 447l14 -285l139 285h122l-230 -447h-113l-16 274l-130 -274h-113l-41 447h117l21 -285l135 285h95z" />
    <glyph glyph-name="wcircumflex" unicode="&#x175;" horiz-adv-x="668" 
d="M454 647l70 -145h-95l-37 69l-61 -69h-101l120 145h104zM420 447l14 -285l139 285h122l-230 -447h-113l-16 274l-130 -274h-113l-41 447h117l21 -285l135 285h95z" />
    <glyph glyph-name="wgrave" unicode="&#x1e81;" horiz-adv-x="668" 
d="M420 447l14 -285l139 285h122l-230 -447h-113l-16 274l-130 -274h-113l-41 447h117l21 -285l135 285h95zM432 508h-105l-64 142h115z" />
    <glyph glyph-name="wdieresis" unicode="&#x1e85;" horiz-adv-x="668" 
d="M245 570c0 38 30 67 67 67c36 0 66 -29 66 -67c0 -36 -30 -66 -66 -66c-37 0 -67 30 -67 66zM409 570c0 38 30 67 66 67s67 -29 67 -67c0 -36 -31 -66 -67 -66s-66 30 -66 66zM420 447l14 -285l139 285h122l-230 -447h-113l-16 274l-130 -274h-113l-41 447h117l21 -285
l135 285h95z" />
    <glyph glyph-name="ycircumflex" unicode="&#x177;" horiz-adv-x="485" 
d="M147 -165h-124l101 172l-71 440h119l45 -297l166 297h129zM355 647l70 -145h-95l-37 69l-61 -69h-101l120 145h104z" />
    <glyph glyph-name="ygrave" unicode="&#x1ef3;" horiz-adv-x="485" 
d="M147 -165h-124l101 172l-71 440h119l45 -297l166 297h129zM333 508h-105l-64 142h115z" />
    <glyph glyph-name="zacute" unicode="&#x17a;" horiz-adv-x="450" 
d="M322 508h-115l105 142h124zM390 100l-17 -100h-374l14 80l261 267h-207l18 100h364l-15 -80l-258 -267h214z" />
    <glyph glyph-name="zdotaccent" unicode="&#x17c;" horiz-adv-x="450" 
d="M390 100l-17 -100h-374l14 80l261 267h-207l18 100h364l-15 -80l-258 -267h214zM357 579c0 -42 -35 -71 -74 -71s-74 29 -74 71c0 41 35 71 74 71s74 -30 74 -71z" />
    <glyph glyph-name="caron.Slovak" horiz-adv-x="500" 
d="M264 483h-99l76 167h100z" />
    <glyph glyph-name="cedilla.alt" horiz-adv-x="500" 
d="M256 -186h-114l95 139h117z" />
    <glyph glyph-name="grave.cap" horiz-adv-x="500" 
d="M345 669h-114l-71 122h128z" />
    <glyph glyph-name="acute.cap" horiz-adv-x="500" 
d="M258 669h-126l100 122h139z" />
    <glyph glyph-name="circumflex.cap" horiz-adv-x="500" 
d="M325 796l77 -127h-101l-38 54l-56 -54h-109l123 127h104z" />
    <glyph glyph-name="caron.cap" horiz-adv-x="500" 
d="M175 668l-77 127h101l38 -54l56 54h109l-123 -127h-104z" />
    <glyph glyph-name="tilde.cap" horiz-adv-x="500" 
d="M333 804h74c-13 -79 -50 -140 -110 -140c-44 0 -64 46 -94 46c-19 0 -31 -16 -36 -42h-74c14 79 50 139 109 139c45 0 66 -45 95 -45c18 0 31 15 36 42z" />
    <glyph glyph-name="macron.cap" horiz-adv-x="500" 
d="M120 669l16 91h243l-16 -91h-243z" />
    <glyph glyph-name="breve.cap" horiz-adv-x="500" 
d="M233 663c-76 0 -131 48 -116 134h88c-6 -33 10 -48 38 -48s50 15 55 48h88c-15 -87 -69 -134 -153 -134z" />
    <glyph glyph-name="dotaccent.cap" horiz-adv-x="500" 
d="M324 734c0 -41 -35 -71 -74 -71s-74 30 -74 71c0 42 35 71 74 71s74 -29 74 -71z" />
    <glyph glyph-name="dieresis.cap" horiz-adv-x="500" 
d="M100 730c0 39 29 68 67 68c37 0 67 -29 67 -68c0 -36 -30 -66 -67 -66c-38 0 -67 30 -67 66zM265 730c0 39 30 68 67 68s68 -29 68 -68c0 -36 -31 -66 -68 -66s-67 30 -67 66z" />
    <glyph glyph-name="ring.cap" horiz-adv-x="500" 
d="M248 704c21 0 41 16 41 41c0 21 -16 38 -37 38c-22 0 -42 -17 -42 -42c0 -21 17 -37 38 -37zM245 646c-54 0 -95 40 -95 93c0 55 45 101 104 101c55 0 95 -40 95 -93c0 -55 -45 -101 -104 -101z" />
    <glyph glyph-name="hungarumlaut.cap" horiz-adv-x="500" 
d="M181 669h-106l88 122h108zM335 669h-106l88 122h108z" />
    <glyph glyph-name="exclamdown.cap" horiz-adv-x="217" 
d="M192 416l-46 -416h-150l105 416h91zM243 544c0 -44 -35 -78 -79 -78s-79 34 -79 78c0 43 35 77 79 77s79 -34 79 -77z" />
    <glyph glyph-name="questiondown.cap" horiz-adv-x="456" 
d="M208 103c54 0 89 38 101 85h130c-32 -114 -119 -199 -246 -199c-112 0 -177 59 -177 154c0 87 64 142 126 196c42 37 51 57 54 76h123c-10 -48 -28 -80 -75 -124c-41 -40 -96 -78 -97 -131c0 -33 22 -57 61 -57zM352 543c0 -45 -34 -78 -78 -78c-45 0 -80 33 -80 78
c0 43 35 77 80 77c44 0 78 -34 78 -77z" />
    <glyph glyph-name="guilsinglleft.cap" horiz-adv-x="254" 
d="M221 141h-111l-63 161l118 161h118l-123 -167z" />
    <glyph glyph-name="guilsinglright.cap" horiz-adv-x="254" 
d="M78 463h112l63 -161l-118 -161h-118l123 167z" />
    <glyph glyph-name="guillemotleft.cap" horiz-adv-x="420" 
d="M215 141h-105l-63 161l120 161h110l-123 -167zM388 141h-107l-62 158l120 164h110l-123 -167z" />
    <glyph glyph-name="guillemotright.cap" horiz-adv-x="420" 
d="M250 463h105l64 -161l-121 -161h-109l122 167zM78 463h106l63 -158l-121 -164h-109l123 167z" />
    <glyph glyph-name="slash.cap" horiz-adv-x="373" 
d="M-48 -64l376 734h125l-377 -734h-124z" />
    <glyph glyph-name="backslash.cap" horiz-adv-x="373" 
d="M208 670l119 -734h-109l-119 734h109z" />
    <glyph glyph-name="bar.cap" horiz-adv-x="228" 
d="M11 -64l129 734h111l-129 -734h-111z" />
    <glyph glyph-name="periodcentered.cap" horiz-adv-x="214" 
d="M41 300c0 45 34 79 78 79s79 -34 79 -79s-35 -80 -79 -80s-78 35 -78 80z" />
    <glyph glyph-name="bullet.cap" horiz-adv-x="364" 
d="M347 299c0 -89 -68 -152 -153 -152c-86 0 -154 63 -154 152c0 91 68 154 154 154c85 0 153 -63 153 -154z" />
    <glyph glyph-name="hyphen.cap" horiz-adv-x="317" 
d="M42 245l19 109h241l-19 -109h-241z" />
    <glyph glyph-name="endash.cap" horiz-adv-x="471" 
d="M42 254l16 91h395l-16 -91h-395z" />
    <glyph glyph-name="emdash.cap" horiz-adv-x="842" 
d="M42 254l16 91h766l-16 -91h-766z" />
    <glyph glyph-name="parenleft.cap" horiz-adv-x="325" 
d="M38 243c0 206 130 378 346 427l-22 -125c-110 -30 -205 -146 -205 -302c0 -97 47 -161 120 -182l-22 -125c-134 40 -217 145 -217 307z" />
    <glyph glyph-name="parenright.cap" horiz-adv-x="325" 
d="M321 363c0 -206 -130 -378 -346 -427l22 125c110 30 205 146 205 302c0 97 -48 161 -120 182l22 125c133 -40 217 -145 217 -307z" />
    <glyph glyph-name="bracketleft.cap" horiz-adv-x="322" 
d="M237 563l-91 -520h127l-19 -107h-243l129 734h243l-19 -107h-127z" />
    <glyph glyph-name="bracketright.cap" horiz-adv-x="322" 
d="M121 43l91 520h-127l19 107h243l-129 -734h-243l19 107h127z" />
    <glyph glyph-name="braceleft.cap" horiz-adv-x="353" 
d="M216 220l-26 -148c-3 -19 5 -29 24 -29h91l-19 -107h-108c-80 0 -120 52 -106 130l26 154c3 19 -5 29 -24 29h-47l20 108h47c19 0 31 10 34 29l27 154c14 77 76 130 152 130h108l-19 -107h-91c-19 0 -31 -10 -34 -29l-26 -148c-8 -43 -33 -68 -62 -84
c24 -16 41 -39 33 -82z" />
    <glyph glyph-name="braceright.cap" horiz-adv-x="353" 
d="M174 386l26 148c3 19 -5 29 -24 29h-91l19 107h108c80 0 119 -52 106 -130l-27 -154c-3 -19 5 -29 24 -29h48l-20 -108h-47c-19 0 -31 -10 -34 -29l-27 -154c-14 -77 -76 -130 -152 -130h-108l19 107h91c19 0 31 10 34 29l26 148c8 43 33 68 62 84c-24 16 -41 39 -33 82z
" />
    <glyph glyph-name="at.cap" horiz-adv-x="768" 
d="M600 478l-55 -236c-6 -27 -1 -47 29 -47c61 0 111 69 111 184c0 133 -104 211 -246 211c-185 0 -319 -135 -319 -332c0 -190 158 -248 285 -248c97 0 172 22 237 51l-13 -77c-51 -25 -133 -46 -224 -46c-190 0 -367 96 -367 320c0 221 166 405 402 405
c195 0 322 -120 322 -283c0 -173 -108 -257 -216 -257c-47 0 -88 19 -109 53c-21 -33 -63 -52 -100 -52c-80 0 -127 59 -127 138c0 117 82 225 195 225c40 0 71 -17 83 -37l8 28h104zM443 258l24 100c-6 21 -27 37 -55 37c-54 0 -94 -57 -94 -119c0 -35 19 -59 56 -59
c31 0 54 19 69 41z" />
    <glyph glyph-name="Euro.lt" 
d="M49 333l13 77h46c40 117 122 214 244 214c110 0 171 -73 180 -184h-108c-8 40 -33 72 -79 72c-56 0 -95 -44 -119 -102h154l-28 -77h-149c-3 -19 -5 -37 -7 -55h140l-30 -77h-108c9 -62 39 -99 91 -99c48 0 75 28 92 72h112c-37 -113 -111 -184 -216 -184
c-110 0 -182 83 -195 211h-57l14 77h42c1 18 3 36 7 55h-39z" />
    <glyph glyph-name="dollar.lt" 
d="M8 188h123c8 -57 52 -82 106 -82c61 0 103 27 104 80c0 28 -17 46 -63 59l-95 28c-69 19 -122 58 -122 141c0 110 88 189 207 195l15 91h107l-18 -102c80 -25 121 -86 127 -162h-118c-6 41 -40 73 -99 73c-56 0 -98 -28 -98 -76c0 -27 16 -45 56 -57l100 -29
c80 -24 125 -69 125 -144c0 -115 -89 -186 -198 -198l-17 -94h-106l18 100c-90 20 -149 80 -154 177z" />
    <glyph glyph-name="cent.lt" 
d="M42 200c0 129 82 249 211 265l16 90h107l-19 -100c68 -23 105 -79 106 -155h-120c-2 37 -24 61 -63 61c-77 0 -114 -83 -114 -159c0 -59 28 -96 77 -96c43 0 71 23 82 60h121c-20 -89 -79 -148 -167 -163l-16 -90h-106l16 95c-82 24 -131 96 -131 192z" />
    <glyph glyph-name="sterling.lt" 
d="M271 424l-13 -73h127l-16 -97h-129l-10 -60c-6 -35 -18 -71 -37 -91h275l-18 -103h-445l17 103h52c17 23 28 47 36 91l11 60h-72l17 97h72l13 71c19 113 90 202 211 202c117 0 171 -72 169 -166h-114c0 40 -21 61 -58 61c-51 0 -78 -40 -88 -95z" />
    <glyph glyph-name="yen.lt" 
d="M22 116l14 84h150l10 56h-150l15 84h107l-92 274h123l79 -246l162 246h129l-192 -274h108l-15 -84h-151l-10 -56h151l-14 -84h-151l-20 -116h-123l20 116h-150z" />
    <glyph glyph-name="florin.lt" 
d="M130 253l18 100h83l35 116c30 100 100 155 192 155c33 0 58 -5 75 -12l-19 -105c-14 7 -30 12 -49 12c-37 0 -62 -18 -75 -62l-32 -104h84l-18 -100h-96l-81 -272c-30 -100 -92 -155 -184 -155c-33 0 -58 5 -75 12l18 102c14 -8 30 -12 49 -12c37 0 54 18 68 62l78 263
h-71z" />
    <glyph glyph-name="zero.lt" 
d="M237 104c99 0 149 156 149 281c0 73 -25 125 -84 125c-98 0 -149 -156 -149 -281c0 -73 25 -125 84 -125zM233 -10c-132 0 -203 98 -203 241c0 217 118 393 276 393c132 0 203 -98 203 -241c0 -216 -118 -393 -276 -393z" />
    <glyph glyph-name="one.lt" 
d="M28 0l20 111h157l62 357l-168 -78l22 126l216 98h81l-89 -503h138l-20 -111h-419z" />
    <glyph glyph-name="two.lt" 
d="M20 85l246 218c49 45 108 97 108 148c0 35 -23 58 -66 58c-51 0 -82 -37 -95 -84h-133c31 114 119 199 244 199c115 0 181 -60 181 -154c0 -98 -70 -155 -156 -232l-141 -127h242l-20 -111h-424z" />
    <glyph glyph-name="three.lt" 
d="M218 263l17 99h38c56 0 109 27 109 91c0 36 -26 62 -71 62c-53 0 -89 -38 -102 -84h-131c29 111 119 193 244 193c119 0 180 -65 180 -158c0 -75 -49 -135 -105 -157c45 -25 66 -68 66 -118c0 -115 -100 -201 -226 -201c-133 0 -210 73 -210 181c0 7 1 19 1 19h126v-6
c0 -54 28 -85 85 -85s104 34 104 94c0 42 -33 70 -86 70h-39z" />
    <glyph glyph-name="four.lt" 
d="M432 614l-264 -387h128l23 127h114l-23 -127h93l-18 -105h-93l-21 -122h-114l21 122h-271l17 93l274 399h134z" />
    <glyph glyph-name="five.lt" 
d="M236 -10c-128 0 -205 76 -205 182c0 7 1 18 1 18h125v-7c0 -50 31 -84 85 -84c65 0 112 49 112 116c0 51 -32 85 -86 85c-38 0 -67 -18 -90 -41h-105l64 355h366l-19 -111h-262l-23 -125c22 13 57 28 99 28c109 0 175 -70 175 -179c0 -129 -93 -237 -237 -237z" />
    <glyph glyph-name="six.lt" 
d="M517 453h-122c-6 33 -30 63 -74 63c-80 0 -136 -82 -154 -172h2c27 34 79 58 129 58c113 0 183 -83 183 -175c0 -125 -99 -237 -234 -237c-149 0 -208 113 -208 244c0 176 101 390 288 390c112 0 179 -67 190 -171zM160 185c0 -49 28 -89 89 -89s112 52 112 118
c0 49 -28 90 -89 90s-112 -52 -112 -119z" />
    <glyph glyph-name="seven.lt" 
d="M502 523l-293 -523h-134l285 502h-297l20 112h435z" />
    <glyph glyph-name="eight.lt" 
d="M152 169c0 -48 37 -78 90 -78c58 0 107 34 107 96c0 48 -37 78 -90 78c-58 0 -107 -34 -107 -96zM239 -10c-101 0 -211 53 -211 167c0 90 65 152 134 167c-41 21 -67 61 -67 116c0 115 100 184 212 184c106 0 193 -58 193 -158c0 -79 -51 -137 -113 -158
c47 -20 84 -64 84 -127c0 -128 -116 -191 -232 -191zM381 457c0 41 -34 69 -76 69c-50 0 -93 -33 -93 -89c0 -41 34 -69 75 -69c51 0 94 33 94 89z" />
    <glyph glyph-name="nine.lt" 
d="M18 161h122c6 -33 30 -63 74 -63c80 0 136 82 154 172h-2c-27 -34 -79 -58 -129 -58c-113 0 -183 83 -183 175c0 125 99 237 234 237c149 0 208 -113 208 -244c0 -176 -101 -390 -288 -390c-112 0 -179 67 -190 171zM375 429c0 49 -28 89 -89 89s-112 -52 -112 -118
c0 -49 28 -90 89 -90s112 52 112 119z" />
    <glyph glyph-name="period.tab" horiz-adv-x="260" 
d="M23 73c0 45 35 79 79 79s78 -34 78 -79s-34 -80 -78 -80s-79 35 -79 80z" />
    <glyph glyph-name="comma.tab" horiz-adv-x="260" 
d="M0 -109l90 114c-29 8 -50 32 -50 69c0 45 34 77 78 77c43 0 78 -30 78 -83c0 -32 -18 -63 -38 -88l-73 -89h-85z" />
    <glyph glyph-name="colon.tab" horiz-adv-x="260" 
d="M23 73c0 45 35 79 79 79s78 -34 78 -79s-34 -80 -78 -80s-79 35 -79 80zM73 358c0 45 35 79 79 79s78 -34 78 -79s-34 -80 -78 -80s-79 35 -79 80z" />
    <glyph glyph-name="semicolon.tab" horiz-adv-x="260" 
d="M0 -109l90 114c-29 8 -50 32 -50 69c0 45 34 77 78 77c43 0 78 -30 78 -83c0 -32 -18 -63 -38 -88l-73 -89h-85zM73 358c0 45 35 79 79 79s78 -34 78 -79s-34 -80 -78 -80s-79 35 -79 80z" />
    <glyph glyph-name="space.tab" horiz-adv-x="260" 
 />
    <glyph glyph-name="uni2153" unicode="&#x2153;" horiz-adv-x="717" 
d="M667 614l-536 -614h-93l536 614h93zM506 140l12 65h20c27 0 49 12 49 39c0 15 -10 27 -29 27c-23 0 -38 -17 -44 -38h-92c16 66 67 113 143 113c69 0 107 -38 107 -93c0 -39 -26 -71 -51 -82c20 -14 31 -37 31 -64c0 -65 -56 -112 -130 -112c-76 0 -124 43 -124 107
c0 4 1 8 1 8h92v-3c0 -20 11 -35 36 -35c22 0 40 14 40 37c0 19 -14 31 -37 31h-24zM274 614l-60 -341h-88l42 237l-96 -43l17 92l125 55h60z" />
    <glyph glyph-name="uni2154" unicode="&#x2154;" horiz-adv-x="784" 
d="M63 337l143 119c19 17 46 40 46 62c0 15 -9 24 -25 24c-20 0 -36 -18 -40 -34h-95c17 64 68 115 143 115c69 0 109 -36 109 -92c0 -52 -38 -86 -82 -122l-66 -55h119l-13 -78h-249zM734 614l-536 -614h-93l537 614h92zM573 140l12 65h20c27 0 49 12 49 39
c0 15 -10 27 -29 27c-23 0 -38 -17 -43 -38h-93c16 66 67 113 143 113c69 0 107 -38 107 -93c0 -39 -26 -71 -51 -82c21 -14 31 -37 31 -64c0 -65 -56 -112 -130 -112c-76 0 -124 43 -124 107c0 4 1 8 1 8h93v-3c0 -20 10 -35 35 -35c22 0 40 14 40 37c0 19 -13 31 -37 31
h-24z" />
    <glyph glyph-name="uni215B" unicode="&#x215b;" horiz-adv-x="728" 
d="M667 614l-536 -614h-93l536 614h93zM274 614l-60 -341h-88l42 237l-96 -43l17 92l125 55h60zM491 99c0 -20 16 -34 40 -34c25 0 46 15 46 40c0 20 -16 33 -40 33c-25 0 -46 -13 -46 -39zM530 -5c-60 0 -126 28 -126 95c0 45 30 78 66 88c-21 13 -32 35 -32 62
c0 70 61 107 126 107c61 0 113 -33 113 -92c0 -39 -22 -72 -56 -87c23 -12 42 -35 42 -67c0 -70 -66 -106 -133 -106zM594 248c0 19 -14 31 -34 31c-23 0 -42 -14 -42 -38c0 -19 15 -31 34 -31c24 0 42 14 42 38z" />
    <glyph glyph-name="uni215C" unicode="&#x215c;" horiz-adv-x="769" 
d="M572 -5c-60 0 -126 28 -126 95c0 45 30 78 66 88c-21 13 -32 35 -32 62c0 70 61 107 126 107c61 0 113 -33 113 -92c0 -39 -22 -72 -56 -87c23 -12 42 -35 42 -67c0 -70 -65 -106 -133 -106zM708 614l-536 -614h-92l536 614h92zM166 412l12 66h20c28 0 49 11 49 39
c0 14 -10 26 -29 26c-22 0 -38 -17 -43 -37h-93c17 65 68 113 143 113c69 0 107 -39 107 -93c0 -40 -26 -72 -51 -83c21 -14 32 -37 32 -63c0 -65 -57 -113 -130 -113c-76 0 -125 44 -125 107c0 4 1 9 1 9h93v-3c0 -21 11 -36 35 -36c22 0 41 14 41 37c0 20 -14 31 -38 31
h-24zM533 99c0 -20 16 -34 40 -34c25 0 46 15 46 40c0 20 -16 33 -40 33c-25 0 -46 -13 -46 -39zM636 248c0 19 -14 31 -34 31c-23 0 -42 -14 -42 -38c0 -19 15 -31 34 -31c24 0 42 14 42 38z" />
    <glyph glyph-name="uni215D" unicode="&#x215d;" horiz-adv-x="769" 
d="M568 -5c-59 0 -126 28 -126 95c0 45 30 78 67 88c-21 13 -32 35 -32 62c0 70 61 107 125 107c62 0 114 -33 114 -92c0 -39 -23 -72 -56 -87c23 -12 42 -35 42 -67c0 -70 -66 -106 -134 -106zM182 267c-78 0 -123 44 -123 104c0 5 1 9 1 9h91v-3c0 -20 14 -34 37 -34
c26 0 45 20 45 47c0 22 -12 36 -37 36c-15 0 -27 -7 -38 -17h-76l36 205h212l-14 -76h-138l-8 -51c11 6 29 12 47 12c61 0 100 -40 100 -100c0 -76 -55 -132 -135 -132zM707 614l-536 -614h-92l536 614h92zM530 99c0 -20 15 -34 39 -34c25 0 46 15 46 40c0 20 -15 33 -39 33
c-25 0 -46 -13 -46 -39zM633 248c0 19 -15 31 -35 31c-22 0 -41 -14 -41 -38c0 -19 15 -31 34 -31c23 0 42 14 42 38z" />
    <glyph glyph-name="uni215E" unicode="&#x215e;" horiz-adv-x="708" 
d="M647 614l-536 -614h-92l536 614h92zM337 551l-156 -278h-94l148 261h-143l15 80h241zM469 99c0 -20 16 -34 40 -34c25 0 46 15 46 40c0 20 -16 33 -39 33c-25 0 -47 -13 -47 -39zM508 -5c-60 0 -126 28 -126 95c0 45 30 78 66 88c-21 13 -32 35 -32 62
c0 70 61 107 126 107c61 0 114 -33 114 -92c0 -39 -23 -72 -57 -87c24 -12 42 -35 42 -67c0 -70 -65 -106 -133 -106zM573 248c0 19 -15 31 -35 31c-23 0 -41 -14 -41 -38c0 -19 14 -31 34 -31c23 0 42 14 42 38z" />
    <glyph glyph-name="percent.lt" 
d="M178 624c65 0 116 -52 116 -116c0 -67 -54 -128 -127 -128c-66 0 -116 51 -116 116c0 67 54 128 127 128zM170 451c27 0 53 22 53 54c0 26 -22 48 -48 48c-28 0 -53 -23 -53 -54c0 -27 21 -48 48 -48zM353 -10c-65 0 -116 52 -116 116c0 67 53 128 127 128
c66 0 116 -51 116 -116c0 -67 -54 -128 -127 -128zM361 163c-27 0 -53 -22 -53 -54c0 -26 21 -48 48 -48c28 0 53 23 53 54c0 27 -21 48 -48 48zM550 614l-480 -614h-89l480 614h89z" />
    <glyph glyph-name="perthousand.lt" horiz-adv-x="800" 
d="M194 624c65 0 116 -52 116 -116c0 -67 -53 -128 -127 -128c-66 0 -116 51 -116 116c0 67 54 128 127 128zM186 451c27 0 53 22 53 54c0 26 -21 48 -48 48s-53 -23 -53 -54c0 -27 21 -48 48 -48zM369 -10c-65 0 -116 52 -116 116c0 67 54 128 127 128
c66 0 116 -51 116 -116c0 -67 -54 -128 -127 -128zM377 163c-27 0 -52 -22 -52 -54c0 -26 21 -48 47 -48c28 0 53 23 53 54c0 27 -21 48 -48 48zM566 614l-480 -614h-89l480 614h89zM639 -10c-65 0 -116 52 -116 116c0 67 54 128 127 128c66 0 116 -51 116 -116
c0 -67 -54 -128 -127 -128zM647 163c-27 0 -53 -22 -53 -54c0 -26 22 -48 48 -48c28 0 53 23 53 54c0 27 -21 48 -48 48z" />
    <glyph glyph-name="plus.lt" 
d="M259 515h95l-30 -168h169l-17 -96h-169l-29 -167h-95l29 167h-168l17 96h168z" />
    <glyph glyph-name="minus.lt" 
d="M44 251l17 96h432l-17 -96h-432z" />
    <glyph glyph-name="multiply.lt" 
d="M205 299l-101 121l74 63l99 -121l144 122l55 -66l-144 -122l100 -121l-74 -63l-100 121l-143 -122l-55 67z" />
    <glyph glyph-name="divide.lt" 
d="M44 251l17 96h432l-17 -96h-432zM229 472c0 39 32 71 71 71s71 -32 71 -71s-32 -70 -71 -70s-71 31 -71 70zM168 126c0 39 32 70 71 70s71 -31 71 -70s-32 -71 -71 -71s-71 32 -71 71z" />
    <glyph glyph-name="equal.lt" 
d="M31 175l15 87h431l-15 -87h-431zM60 338l15 88h431l-15 -88h-431z" />
    <glyph glyph-name="less.lt" 
d="M80 236l21 123l355 152l-19 -111l-258 -106l221 -106l-19 -105z" />
    <glyph glyph-name="greater.lt" 
d="M456 358l-21 -123l-355 -152l19 111l258 106l-221 106l19 105z" />
    <glyph glyph-name="plusminus.lt" 
d="M278 548h90l-23 -130h164l-15 -90h-165l-23 -130h-90l23 130h-165l16 90h165zM27 62l16 91h420l-17 -91h-419z" />
    <glyph glyph-name="lessequal.lt" 
d="M104 303l20 117l351 125l-19 -107l-248 -80l219 -80l-16 -98zM60 60l17 93h329l-17 -93h-329z" />
    <glyph glyph-name="greaterequal.lt" 
d="M418 153l-17 -93h-329l16 93h330zM465 421l-20 -117l-352 -124l20 107l248 79l-220 81l16 98z" />
    <glyph glyph-name="notequal.lt" 
d="M60 338l15 87h257l80 94h82l-80 -94h92l-15 -87h-150l-65 -77h201l-15 -86h-259l-79 -94h-82l79 94h-90l15 86h148l65 77h-199z" />
    <glyph glyph-name="approxequal.lt" 
d="M55 312l16 90c46 27 86 38 122 38c73 0 117 -37 190 -37c36 0 78 11 126 39l-16 -90c-48 -28 -89 -39 -126 -39c-73 0 -116 38 -189 38c-36 0 -77 -11 -123 -39zM28 159l16 89c46 28 87 39 123 39c73 0 116 -38 189 -38c36 0 77 10 126 39l-16 -90
c-48 -28 -90 -38 -126 -38c-73 0 -116 37 -189 37c-36 0 -76 -11 -123 -38z" />
    </font>
</defs>
</svg>
